<?xml version="1.0" encoding="UTF-8"?>
<svg width="350px" height="350px" viewBox="0 0 350 350" version="1.1" xmlns="http://www.w3.org/2000/svg" xmlns:xlink="http://www.w3.org/1999/xlink">
    <title>Desktop HD Copy 6</title>
    <g id="Desktop-HD-Copy-6" stroke="none" stroke-width="1" fill="none" fill-rule="evenodd">
        <rect fill="#88C0D0" x="0" y="0" width="350" height="350"></rect>
        <path d="M16.8322206,35.7844411 C18.9929211,35.7844411 20.7444411,34.0329211 20.7444411,31.8722206 C20.7444411,29.7115201 18.9929211,27.96 16.8322206,27.96 C14.6715201,27.96 12.92,29.7115201 12.92,31.8722206 C12.92,34.0329211 14.6715201,35.7844411 16.8322206,35.7844411 Z M25.3667807,35.7844411 C27.5274812,35.7844411 29.2790013,34.0329211 29.2790013,31.8722206 C29.2790013,29.7115201 27.5274812,27.96 25.3667807,27.96 C23.2060802,27.96 21.4545602,29.7115201 21.4545602,31.8722206 C21.4545602,34.0329211 23.2060802,35.7844411 25.3667807,35.7844411 Z M33.9005213,35.7844411 C36.0612218,35.7844411 37.8127419,34.0329211 37.8127419,31.8722206 C37.8127419,29.7115201 36.0612218,27.96 33.9005213,27.96 C31.7398208,27.96 29.9883008,29.7115201 29.9883008,31.8722206 C29.9883008,34.0329211 31.7398208,35.7844411 33.9005213,35.7844411 Z M16.8322218,44.3206416 C18.9929223,44.3206416 20.7444424,42.5691216 20.7444424,40.4084211 C20.7444424,38.2477206 18.9929223,36.4962005 16.8322218,36.4962005 C14.6715213,36.4962005 12.9200013,38.2477206 12.9200013,40.4084211 C12.9200013,42.5691216 14.6715213,44.3206416 16.8322218,44.3206416 Z M42.4350815,44.3206416 C44.595782,44.3206416 46.347302,42.5691216 46.347302,40.4084211 C46.347302,38.2477206 44.595782,36.4962005 42.4350815,36.4962005 C40.274381,36.4962005 38.5228609,38.2477206 38.5228609,40.4084211 C38.5228609,42.5691216 40.274381,44.3206416 42.4350815,44.3206416 Z M16.8322218,52.8568421 C18.9929223,52.8568421 20.7444424,51.1053221 20.7444424,48.9446216 C20.7444424,46.7839211 18.9929223,45.032401 16.8322218,45.032401 C14.6715213,45.032401 12.9200013,46.7839211 12.9200013,48.9446216 C12.9200013,51.1053221 14.6715213,52.8568421 16.8322218,52.8568421 Z M42.4350815,52.8568421 C44.595782,52.8568421 46.347302,51.1053221 46.347302,48.9446216 C46.347302,46.7839211 44.595782,45.032401 42.4350815,45.032401 C40.274381,45.032401 38.5228609,46.7839211 38.5228609,48.9446216 C38.5228609,51.1053221 40.274381,52.8568421 42.4350815,52.8568421 Z M16.8322218,61.3930426 C18.9929223,61.3930426 20.7444424,59.6415226 20.7444424,57.4808221 C20.7444424,55.3201216 18.9929223,53.5686015 16.8322218,53.5686015 C14.6715213,53.5686015 12.9200013,55.3201216 12.9200013,57.4808221 C12.9200013,59.6415226 14.6715213,61.3930426 16.8322218,61.3930426 Z M25.3659624,61.3930426 C27.5266629,61.3930426 29.278183,59.6415226 29.278183,57.4808221 C29.278183,55.3201216 27.5266629,53.5686015 25.3659624,53.5686015 C23.2052619,53.5686015 21.4537419,55.3201216 21.4537419,57.4808221 C21.4537419,59.6415226 23.2052619,61.3930426 25.3659624,61.3930426 Z M33.899703,61.3930426 C36.0604035,61.3930426 37.8119236,59.6415226 37.8119236,57.4808221 C37.8119236,55.3201216 36.0604035,53.5686015 33.899703,53.5686015 C31.7390025,53.5686015 29.9874825,55.3201216 29.9874825,57.4808221 C29.9874825,59.6415226 31.7390025,61.3930426 33.899703,61.3930426 Z M16.8314035,69.9292431 C18.992104,69.9292431 20.7436241,68.1777231 20.7436241,66.0170226 C20.7436241,63.8563221 18.992104,62.104802 16.8314035,62.104802 C14.670703,62.104802 12.919183,63.8563221 12.919183,66.0170226 C12.919183,68.1777231 14.670703,69.9292431 16.8314035,69.9292431 Z M42.4342632,69.9292431 C44.5949637,69.9292431 46.3464837,68.1777231 46.3464837,66.0170226 C46.3464837,63.8563221 44.5949637,62.104802 42.4342632,62.104802 C40.2735627,62.104802 38.5220426,63.8563221 38.5220426,66.0170226 C38.5220426,68.1777231 40.2735627,69.9292431 42.4342632,69.9292431 Z M16.8314035,78.4654436 C18.992104,78.4654436 20.7436241,76.7139236 20.7436241,74.5532231 C20.7436241,72.3925226 18.992104,70.6410025 16.8314035,70.6410025 C14.670703,70.6410025 12.919183,72.3925226 12.919183,74.5532231 C12.919183,76.7139236 14.670703,78.4654436 16.8314035,78.4654436 Z M42.4342632,78.4654436 C44.5949637,78.4654436 46.3464837,76.7139236 46.3464837,74.5532231 C46.3464837,72.3925226 44.5949637,70.6410025 42.4342632,70.6410025 C40.2735627,70.6410025 38.5220426,72.3925226 38.5220426,74.5532231 C38.5220426,76.7139236 40.2735627,78.4654436 42.4342632,78.4654436 Z M16.8314035,87.0016441 C18.992104,87.0016441 20.7436241,85.2501241 20.7436241,83.0894236 C20.7436241,80.9287231 18.992104,79.177203 16.8314035,79.177203 C14.670703,79.177203 12.919183,80.9287231 12.919183,83.0894236 C12.919183,85.2501241 14.670703,87.0016441 16.8314035,87.0016441 Z M25.3651441,87.0016441 C27.5258446,87.0016441 29.2773647,85.2501241 29.2773647,83.0894236 C29.2773647,80.9287231 27.5258446,79.177203 25.3651441,79.177203 C23.2044436,79.177203 21.4529236,80.9287231 21.4529236,83.0894236 C21.4529236,85.2501241 23.2044436,87.0016441 25.3651441,87.0016441 Z M33.8988847,87.0016441 C36.0595852,87.0016441 37.8111053,85.2501241 37.8111053,83.0894236 C37.8111053,80.9287231 36.0595852,79.177203 33.8988847,79.177203 C31.7381842,79.177203 29.9866642,80.9287231 29.9866642,83.0894236 C29.9866642,85.2501241 31.7381842,87.0016441 33.8988847,87.0016441 Z M59.7182206,35.7844411 C61.8789211,35.7844411 63.6304411,34.0329211 63.6304411,31.8722206 C63.6304411,29.7115201 61.8789211,27.96 59.7182206,27.96 C57.5575201,27.96 55.806,29.7115201 55.806,31.8722206 C55.806,34.0329211 57.5575201,35.7844411 59.7182206,35.7844411 Z M68.2527807,35.7844411 C70.4134812,35.7844411 72.1650013,34.0329211 72.1650013,31.8722206 C72.1650013,29.7115201 70.4134812,27.96 68.2527807,27.96 C66.0920802,27.96 64.3405602,29.7115201 64.3405602,31.8722206 C64.3405602,34.0329211 66.0920802,35.7844411 68.2527807,35.7844411 Z M76.7865213,35.7844411 C78.9472218,35.7844411 80.6987419,34.0329211 80.6987419,31.8722206 C80.6987419,29.7115201 78.9472218,27.96 76.7865213,27.96 C74.6258208,27.96 72.8743008,29.7115201 72.8743008,31.8722206 C72.8743008,34.0329211 74.6258208,35.7844411 76.7865213,35.7844411 Z M59.7182218,44.3206416 C61.8789223,44.3206416 63.6304424,42.5691216 63.6304424,40.4084211 C63.6304424,38.2477206 61.8789223,36.4962005 59.7182218,36.4962005 C57.5575213,36.4962005 55.8060013,38.2477206 55.8060013,40.4084211 C55.8060013,42.5691216 57.5575213,44.3206416 59.7182218,44.3206416 Z M85.3210815,44.3206416 C87.481782,44.3206416 89.233302,42.5691216 89.233302,40.4084211 C89.233302,38.2477206 87.481782,36.4962005 85.3210815,36.4962005 C83.160381,36.4962005 81.4088609,38.2477206 81.4088609,40.4084211 C81.4088609,42.5691216 83.160381,44.3206416 85.3210815,44.3206416 Z M59.7182218,52.8568421 C61.8789223,52.8568421 63.6304424,51.1053221 63.6304424,48.9446216 C63.6304424,46.7839211 61.8789223,45.032401 59.7182218,45.032401 C57.5575213,45.032401 55.8060013,46.7839211 55.8060013,48.9446216 C55.8060013,51.1053221 57.5575213,52.8568421 59.7182218,52.8568421 Z M85.3210815,52.8568421 C87.481782,52.8568421 89.233302,51.1053221 89.233302,48.9446216 C89.233302,46.7839211 87.481782,45.032401 85.3210815,45.032401 C83.160381,45.032401 81.4088609,46.7839211 81.4088609,48.9446216 C81.4088609,51.1053221 83.160381,52.8568421 85.3210815,52.8568421 Z M59.7182218,61.3930426 C61.8789223,61.3930426 63.6304424,59.6415226 63.6304424,57.4808221 C63.6304424,55.3201216 61.8789223,53.5686015 59.7182218,53.5686015 C57.5575213,53.5686015 55.8060013,55.3201216 55.8060013,57.4808221 C55.8060013,59.6415226 57.5575213,61.3930426 59.7182218,61.3930426 Z M68.2519624,61.3930426 C70.4126629,61.3930426 72.164183,59.6415226 72.164183,57.4808221 C72.164183,55.3201216 70.4126629,53.5686015 68.2519624,53.5686015 C66.0912619,53.5686015 64.3397419,55.3201216 64.3397419,57.4808221 C64.3397419,59.6415226 66.0912619,61.3930426 68.2519624,61.3930426 Z M76.785703,61.3930426 C78.9464035,61.3930426 80.6979236,59.6415226 80.6979236,57.4808221 C80.6979236,55.3201216 78.9464035,53.5686015 76.785703,53.5686015 C74.6250025,53.5686015 72.8734825,55.3201216 72.8734825,57.4808221 C72.8734825,59.6415226 74.6250025,61.3930426 76.785703,61.3930426 Z M59.7174035,69.9292431 C61.878104,69.9292431 63.6296241,68.1777231 63.6296241,66.0170226 C63.6296241,63.8563221 61.878104,62.104802 59.7174035,62.104802 C57.556703,62.104802 55.805183,63.8563221 55.805183,66.0170226 C55.805183,68.1777231 57.556703,69.9292431 59.7174035,69.9292431 Z M76.785703,69.9292431 C78.9464035,69.9292431 80.6979236,68.1777231 80.6979236,66.0170226 C80.6979236,63.8563221 78.9464035,62.104802 76.785703,62.104802 C74.6250025,62.104802 72.8734825,63.8563221 72.8734825,66.0170226 C72.8734825,68.1777231 74.6250025,69.9292431 76.785703,69.9292431 Z M59.7174035,78.4654436 C61.878104,78.4654436 63.6296241,76.7139236 63.6296241,74.5532231 C63.6296241,72.3925226 61.878104,70.6410025 59.7174035,70.6410025 C57.556703,70.6410025 55.805183,72.3925226 55.805183,74.5532231 C55.805183,76.7139236 57.556703,78.4654436 59.7174035,78.4654436 Z M85.3202632,78.4654436 C87.4809637,78.4654436 89.2324837,76.7139236 89.2324837,74.5532231 C89.2324837,72.3925226 87.4809637,70.6410025 85.3202632,70.6410025 C83.1595627,70.6410025 81.4080426,72.3925226 81.4080426,74.5532231 C81.4080426,76.7139236 83.1595627,78.4654436 85.3202632,78.4654436 Z M59.7174035,87.0016441 C61.878104,87.0016441 63.6296241,85.2501241 63.6296241,83.0894236 C63.6296241,80.9287231 61.878104,79.177203 59.7174035,79.177203 C57.556703,79.177203 55.805183,80.9287231 55.805183,83.0894236 C55.805183,85.2501241 57.556703,87.0016441 59.7174035,87.0016441 Z M85.3202632,87.0016441 C87.4809637,87.0016441 89.2324837,85.2501241 89.2324837,83.0894236 C89.2324837,80.9287231 87.4809637,79.177203 85.3202632,79.177203 C83.1595627,79.177203 81.4080426,80.9287231 81.4080426,83.0894236 C81.4080426,85.2501241 83.1595627,87.0016441 85.3202632,87.0016441 Z M102.604221,35.7844411 C104.764921,35.7844411 106.516441,34.0329211 106.516441,31.8722206 C106.516441,29.7115201 104.764921,27.96 102.604221,27.96 C100.44352,27.96 98.692,29.7115201 98.692,31.8722206 C98.692,34.0329211 100.44352,35.7844411 102.604221,35.7844411 Z M111.138781,35.7844411 C113.299481,35.7844411 115.051001,34.0329211 115.051001,31.8722206 C115.051001,29.7115201 113.299481,27.96 111.138781,27.96 C108.97808,27.96 107.22656,29.7115201 107.22656,31.8722206 C107.22656,34.0329211 108.97808,35.7844411 111.138781,35.7844411 Z M119.672521,35.7844411 C121.833222,35.7844411 123.584742,34.0329211 123.584742,31.8722206 C123.584742,29.7115201 121.833222,27.96 119.672521,27.96 C117.511821,27.96 115.760301,29.7115201 115.760301,31.8722206 C115.760301,34.0329211 117.511821,35.7844411 119.672521,35.7844411 Z M128.206262,35.7844411 C130.366962,35.7844411 132.118482,34.0329211 132.118482,31.8722206 C132.118482,29.7115201 130.366962,27.96 128.206262,27.96 C126.045561,27.96 124.294041,29.7115201 124.294041,31.8722206 C124.294041,34.0329211 126.045561,35.7844411 128.206262,35.7844411 Z M102.604222,44.3206416 C104.764922,44.3206416 106.516442,42.5691216 106.516442,40.4084211 C106.516442,38.2477206 104.764922,36.4962005 102.604222,36.4962005 C100.443521,36.4962005 98.6920013,38.2477206 98.6920013,40.4084211 C98.6920013,42.5691216 100.443521,44.3206416 102.604222,44.3206416 Z M102.604222,52.8568421 C104.764922,52.8568421 106.516442,51.1053221 106.516442,48.9446216 C106.516442,46.7839211 104.764922,45.032401 102.604222,45.032401 C100.443521,45.032401 98.6920013,46.7839211 98.6920013,48.9446216 C98.6920013,51.1053221 100.443521,52.8568421 102.604222,52.8568421 Z M102.604222,61.3930426 C104.764922,61.3930426 106.516442,59.6415226 106.516442,57.4808221 C106.516442,55.3201216 104.764922,53.5686015 102.604222,53.5686015 C100.443521,53.5686015 98.6920013,55.3201216 98.6920013,57.4808221 C98.6920013,59.6415226 100.443521,61.3930426 102.604222,61.3930426 Z M111.137962,61.3930426 C113.298663,61.3930426 115.050183,59.6415226 115.050183,57.4808221 C115.050183,55.3201216 113.298663,53.5686015 111.137962,53.5686015 C108.977262,53.5686015 107.225742,55.3201216 107.225742,57.4808221 C107.225742,59.6415226 108.977262,61.3930426 111.137962,61.3930426 Z M119.671703,61.3930426 C121.832404,61.3930426 123.583924,59.6415226 123.583924,57.4808221 C123.583924,55.3201216 121.832404,53.5686015 119.671703,53.5686015 C117.511003,53.5686015 115.759482,55.3201216 115.759482,57.4808221 C115.759482,59.6415226 117.511003,61.3930426 119.671703,61.3930426 Z M102.603404,69.9292431 C104.764104,69.9292431 106.515624,68.1777231 106.515624,66.0170226 C106.515624,63.8563221 104.764104,62.104802 102.603404,62.104802 C100.442703,62.104802 98.691183,63.8563221 98.691183,66.0170226 C98.691183,68.1777231 100.442703,69.9292431 102.603404,69.9292431 Z M102.603404,78.4654436 C104.764104,78.4654436 106.515624,76.7139236 106.515624,74.5532231 C106.515624,72.3925226 104.764104,70.6410025 102.603404,70.6410025 C100.442703,70.6410025 98.691183,72.3925226 98.691183,74.5532231 C98.691183,76.7139236 100.442703,78.4654436 102.603404,78.4654436 Z M102.603404,87.0016441 C104.764104,87.0016441 106.515624,85.2501241 106.515624,83.0894236 C106.515624,80.9287231 104.764104,79.177203 102.603404,79.177203 C100.442703,79.177203 98.691183,80.9287231 98.691183,83.0894236 C98.691183,85.2501241 100.442703,87.0016441 102.603404,87.0016441 Z M111.137964,87.0016441 C113.298664,87.0016441 115.050184,85.2501241 115.050184,83.0894236 C115.050184,80.9287231 113.298664,79.177203 111.137964,79.177203 C108.977263,79.177203 107.225743,80.9287231 107.225743,83.0894236 C107.225743,85.2501241 108.977263,87.0016441 111.137964,87.0016441 Z M119.671704,87.0016441 C121.832405,87.0016441 123.583925,85.2501241 123.583925,83.0894236 C123.583925,80.9287231 121.832405,79.177203 119.671704,79.177203 C117.511004,79.177203 115.759484,80.9287231 115.759484,83.0894236 C115.759484,85.2501241 117.511004,87.0016441 119.671704,87.0016441 Z M128.205445,87.0016441 C130.366145,87.0016441 132.117665,85.2501241 132.117665,83.0894236 C132.117665,80.9287231 130.366145,79.177203 128.205445,79.177203 C126.044744,79.177203 124.293224,80.9287231 124.293224,83.0894236 C124.293224,85.2501241 126.044744,87.0016441 128.205445,87.0016441 Z M152.79396,35.7844411 C154.95466,35.7844411 156.70618,34.0329211 156.70618,31.8722206 C156.70618,29.7115201 154.95466,27.96 152.79396,27.96 C150.633259,27.96 148.881739,29.7115201 148.881739,31.8722206 C148.881739,34.0329211 150.633259,35.7844411 152.79396,35.7844411 Z M161.327701,35.7844411 C163.488401,35.7844411 165.239921,34.0329211 165.239921,31.8722206 C165.239921,29.7115201 163.488401,27.96 161.327701,27.96 C159.167,27.96 157.41548,29.7115201 157.41548,31.8722206 C157.41548,34.0329211 159.167,35.7844411 161.327701,35.7844411 Z M144.259401,44.3206416 C146.420102,44.3206416 148.171622,42.5691216 148.171622,40.4084211 C148.171622,38.2477206 146.420102,36.4962005 144.259401,36.4962005 C142.098701,36.4962005 140.34718,38.2477206 140.34718,40.4084211 C140.34718,42.5691216 142.098701,44.3206416 144.259401,44.3206416 Z M169.861441,44.3206416 C172.022142,44.3206416 173.773662,42.5691216 173.773662,40.4084211 C173.773662,38.2477206 172.022142,36.4962005 169.861441,36.4962005 C167.700741,36.4962005 165.949221,38.2477206 165.949221,40.4084211 C165.949221,42.5691216 167.700741,44.3206416 169.861441,44.3206416 Z M144.259401,52.8568421 C146.420102,52.8568421 148.171622,51.1053221 148.171622,48.9446216 C148.171622,46.7839211 146.420102,45.032401 144.259401,45.032401 C142.098701,45.032401 140.34718,46.7839211 140.34718,48.9446216 C140.34718,51.1053221 142.098701,52.8568421 144.259401,52.8568421 Z M169.861441,52.8568421 C172.022142,52.8568421 173.773662,51.1053221 173.773662,48.9446216 C173.773662,46.7839211 172.022142,45.032401 169.861441,45.032401 C167.700741,45.032401 165.949221,46.7839211 165.949221,48.9446216 C165.949221,51.1053221 167.700741,52.8568421 169.861441,52.8568421 Z M169.861441,61.3930426 C172.022142,61.3930426 173.773662,59.6415226 173.773662,57.4808221 C173.773662,55.3201216 172.022142,53.5686015 169.861441,53.5686015 C167.700741,53.5686015 165.949221,55.3201216 165.949221,57.4808221 C165.949221,59.6415226 167.700741,61.3930426 169.861441,61.3930426 Z M144.259401,61.3930426 C146.420102,61.3930426 148.171622,59.6415226 148.171622,57.4808221 C148.171622,55.3201216 146.420102,53.5686015 144.259401,53.5686015 C142.098701,53.5686015 140.34718,55.3201216 140.34718,57.4808221 C140.34718,59.6415226 142.098701,61.3930426 144.259401,61.3930426 Z M144.259401,69.9292431 C146.420102,69.9292431 148.171622,68.1777231 148.171622,66.0170226 C148.171622,63.8563221 146.420102,62.104802 144.259401,62.104802 C142.098701,62.104802 140.34718,63.8563221 140.34718,66.0170226 C140.34718,68.1777231 142.098701,69.9292431 144.259401,69.9292431 Z M152.793142,69.9292431 C154.953842,69.9292431 156.705362,68.1777231 156.705362,66.0170226 C156.705362,63.8563221 154.953842,62.104802 152.793142,62.104802 C150.632441,62.104802 148.880921,63.8563221 148.880921,66.0170226 C148.880921,68.1777231 150.632441,69.9292431 152.793142,69.9292431 Z M161.326882,69.9292431 C163.487583,69.9292431 165.239103,68.1777231 165.239103,66.0170226 C165.239103,63.8563221 163.487583,62.104802 161.326882,62.104802 C159.166182,62.104802 157.414662,63.8563221 157.414662,66.0170226 C157.414662,68.1777231 159.166182,69.9292431 161.326882,69.9292431 Z M169.860623,69.9292431 C172.021323,69.9292431 173.772843,68.1777231 173.772843,66.0170226 C173.772843,63.8563221 172.021323,62.104802 169.860623,62.104802 C167.699922,62.104802 165.948402,63.8563221 165.948402,66.0170226 C165.948402,68.1777231 167.699922,69.9292431 169.860623,69.9292431 Z M144.258583,78.4654436 C146.419283,78.4654436 148.170803,76.7139236 148.170803,74.5532231 C148.170803,72.3925226 146.419283,70.6410025 144.258583,70.6410025 C142.097882,70.6410025 140.346362,72.3925226 140.346362,74.5532231 C140.346362,76.7139236 142.097882,78.4654436 144.258583,78.4654436 Z M169.860623,78.4654436 C172.021323,78.4654436 173.772843,76.7139236 173.772843,74.5532231 C173.772843,72.3925226 172.021323,70.6410025 169.860623,70.6410025 C167.699922,70.6410025 165.948402,72.3925226 165.948402,74.5532231 C165.948402,76.7139236 167.699922,78.4654436 169.860623,78.4654436 Z M144.258583,87.0016441 C146.419283,87.0016441 148.170803,85.2501241 148.170803,83.0894236 C148.170803,80.9287231 146.419283,79.177203 144.258583,79.177203 C142.097882,79.177203 140.346362,80.9287231 140.346362,83.0894236 C140.346362,85.2501241 142.097882,87.0016441 144.258583,87.0016441 Z M169.860623,87.0016441 C172.021323,87.0016441 173.772843,85.2501241 173.772843,83.0894236 C173.772843,80.9287231 172.021323,79.177203 169.860623,79.177203 C167.699922,79.177203 165.948402,80.9287231 165.948402,83.0894236 C165.948402,85.2501241 167.699922,87.0016441 169.860623,87.0016441 Z M187.556221,35.7844411 C189.716921,35.7844411 191.468441,34.0329211 191.468441,31.8722206 C191.468441,29.7115201 189.716921,27.96 187.556221,27.96 C185.39552,27.96 183.644,29.7115201 183.644,31.8722206 C183.644,34.0329211 185.39552,35.7844411 187.556221,35.7844411 Z M213.15908,35.7844411 C215.319781,35.7844411 217.071301,34.0329211 217.071301,31.8722206 C217.071301,29.7115201 215.319781,27.96 213.15908,27.96 C210.99838,27.96 209.24686,29.7115201 209.24686,31.8722206 C209.24686,34.0329211 210.99838,35.7844411 213.15908,35.7844411 Z M187.556221,44.3206416 C189.716921,44.3206416 191.468441,42.5691216 191.468441,40.4084211 C191.468441,38.2477206 189.716921,36.4962005 187.556221,36.4962005 C185.39552,36.4962005 183.644,38.2477206 183.644,40.4084211 C183.644,42.5691216 185.39552,44.3206416 187.556221,44.3206416 Z M213.15908,44.3206416 C215.319781,44.3206416 217.071301,42.5691216 217.071301,40.4084211 C217.071301,38.2477206 215.319781,36.4962005 213.15908,36.4962005 C210.99838,36.4962005 209.24686,38.2477206 209.24686,40.4084211 C209.24686,42.5691216 210.99838,44.3206416 213.15908,44.3206416 Z M187.556221,52.8568421 C189.716921,52.8568421 191.468441,51.1053221 191.468441,48.9446216 C191.468441,46.7839211 189.716921,45.032401 187.556221,45.032401 C185.39552,45.032401 183.644,46.7839211 183.644,48.9446216 C183.644,51.1053221 185.39552,52.8568421 187.556221,52.8568421 Z M204.62452,52.8568421 C206.785221,52.8568421 208.536741,51.1053221 208.536741,48.9446216 C208.536741,46.7839211 206.785221,45.032401 204.62452,45.032401 C202.46382,45.032401 200.712299,46.7839211 200.712299,48.9446216 C200.712299,51.1053221 202.46382,52.8568421 204.62452,52.8568421 Z M187.556221,61.3930426 C189.716921,61.3930426 191.468441,59.6415226 191.468441,57.4808221 C191.468441,55.3201216 189.716921,53.5686015 187.556221,53.5686015 C185.39552,53.5686015 183.644,55.3201216 183.644,57.4808221 C183.644,59.6415226 185.39552,61.3930426 187.556221,61.3930426 Z M196.090781,61.3930426 C198.251481,61.3930426 200.003001,59.6415226 200.003001,57.4808221 C200.003001,55.3201216 198.251481,53.5686015 196.090781,53.5686015 C193.93008,53.5686015 192.17856,55.3201216 192.17856,57.4808221 C192.17856,59.6415226 193.93008,61.3930426 196.090781,61.3930426 Z M204.624521,61.3930426 C206.785222,61.3930426 208.536742,59.6415226 208.536742,57.4808221 C208.536742,55.3201216 206.785222,53.5686015 204.624521,53.5686015 C202.463821,53.5686015 200.712301,55.3201216 200.712301,57.4808221 C200.712301,59.6415226 202.463821,61.3930426 204.624521,61.3930426 Z M187.556222,69.9292431 C189.716922,69.9292431 191.468442,68.1777231 191.468442,66.0170226 C191.468442,63.8563221 189.716922,62.104802 187.556222,62.104802 C185.395521,62.104802 183.644001,63.8563221 183.644001,66.0170226 C183.644001,68.1777231 185.395521,69.9292431 187.556222,69.9292431 Z M204.624521,69.9292431 C206.785222,69.9292431 208.536742,68.1777231 208.536742,66.0170226 C208.536742,63.8563221 206.785222,62.104802 204.624521,62.104802 C202.463821,62.104802 200.712301,63.8563221 200.712301,66.0170226 C200.712301,68.1777231 202.463821,69.9292431 204.624521,69.9292431 Z M187.556222,78.4654436 C189.716922,78.4654436 191.468442,76.7139236 191.468442,74.5532231 C191.468442,72.3925226 189.716922,70.6410025 187.556222,70.6410025 C185.395521,70.6410025 183.644001,72.3925226 183.644001,74.5532231 C183.644001,76.7139236 185.395521,78.4654436 187.556222,78.4654436 Z M213.159081,78.4654436 C215.319782,78.4654436 217.071302,76.7139236 217.071302,74.5532231 C217.071302,72.3925226 215.319782,70.6410025 213.159081,70.6410025 C210.998381,70.6410025 209.246861,72.3925226 209.246861,74.5532231 C209.246861,76.7139236 210.998381,78.4654436 213.159081,78.4654436 Z M187.556222,87.0016441 C189.716922,87.0016441 191.468442,85.2501241 191.468442,83.0894236 C191.468442,80.9287231 189.716922,79.177203 187.556222,79.177203 C185.395521,79.177203 183.644001,80.9287231 183.644001,83.0894236 C183.644001,85.2501241 185.395521,87.0016441 187.556222,87.0016441 Z M213.159081,87.0016441 C215.319782,87.0016441 217.071302,85.2501241 217.071302,83.0894236 C217.071302,80.9287231 215.319782,79.177203 213.159081,79.177203 C210.998381,79.177203 209.246861,80.9287231 209.246861,83.0894236 C209.246861,85.2501241 210.998381,87.0016441 213.159081,87.0016441 Z M237.33596,35.7844411 C239.49666,35.7844411 241.24818,34.0329211 241.24818,31.8722206 C241.24818,29.7115201 239.49666,27.96 237.33596,27.96 C235.175259,27.96 233.423739,29.7115201 233.423739,31.8722206 C233.423739,34.0329211 235.175259,35.7844411 237.33596,35.7844411 Z M245.87052,35.7844411 C248.031221,35.7844411 249.782741,34.0329211 249.782741,31.8722206 C249.782741,29.7115201 248.031221,27.96 245.87052,27.96 C243.70982,27.96 241.958299,29.7115201 241.958299,31.8722206 C241.958299,34.0329211 243.70982,35.7844411 245.87052,35.7844411 Z M228.802221,44.3206416 C230.962921,44.3206416 232.714441,42.5691216 232.714441,40.4084211 C232.714441,38.2477206 230.962921,36.4962005 228.802221,36.4962005 C226.64152,36.4962005 224.89,38.2477206 224.89,40.4084211 C224.89,42.5691216 226.64152,44.3206416 228.802221,44.3206416 Z M254.404261,44.3206416 C256.564961,44.3206416 258.316481,42.5691216 258.316481,40.4084211 C258.316481,38.2477206 256.564961,36.4962005 254.404261,36.4962005 C252.24356,36.4962005 250.49204,38.2477206 250.49204,40.4084211 C250.49204,42.5691216 252.24356,44.3206416 254.404261,44.3206416 Z M228.802221,52.8568421 C230.962921,52.8568421 232.714441,51.1053221 232.714441,48.9446216 C232.714441,46.7839211 230.962921,45.032401 228.802221,45.032401 C226.64152,45.032401 224.89,46.7839211 224.89,48.9446216 C224.89,51.1053221 226.64152,52.8568421 228.802221,52.8568421 Z M254.404261,52.8568421 C256.564961,52.8568421 258.316481,51.1053221 258.316481,48.9446216 C258.316481,46.7839211 256.564961,45.032401 254.404261,45.032401 C252.24356,45.032401 250.49204,46.7839211 250.49204,48.9446216 C250.49204,51.1053221 252.24356,52.8568421 254.404261,52.8568421 Z M228.802221,61.3930426 C230.962921,61.3930426 232.714441,59.6415226 232.714441,57.4808221 C232.714441,55.3201216 230.962921,53.5686015 228.802221,53.5686015 C226.64152,53.5686015 224.89,55.3201216 224.89,57.4808221 C224.89,59.6415226 226.64152,61.3930426 228.802221,61.3930426 Z M254.404261,61.3930426 C256.564961,61.3930426 258.316481,59.6415226 258.316481,57.4808221 C258.316481,55.3201216 256.564961,53.5686015 254.404261,53.5686015 C252.24356,53.5686015 250.49204,55.3201216 250.49204,57.4808221 C250.49204,59.6415226 252.24356,61.3930426 254.404261,61.3930426 Z M228.802221,69.9292431 C230.962921,69.9292431 232.714441,68.1777231 232.714441,66.0170226 C232.714441,63.8563221 230.962921,62.104802 228.802221,62.104802 C226.64152,62.104802 224.89,63.8563221 224.89,66.0170226 C224.89,68.1777231 226.64152,69.9292431 228.802221,69.9292431 Z M254.404261,69.9292431 C256.564961,69.9292431 258.316481,68.1777231 258.316481,66.0170226 C258.316481,63.8563221 256.564961,62.104802 254.404261,62.104802 C252.24356,62.104802 250.49204,63.8563221 250.49204,66.0170226 C250.49204,68.1777231 252.24356,69.9292431 254.404261,69.9292431 Z M228.802221,78.4654436 C230.962921,78.4654436 232.714441,76.7139236 232.714441,74.5532231 C232.714441,72.3925226 230.962921,70.6410025 228.802221,70.6410025 C226.64152,70.6410025 224.89,72.3925226 224.89,74.5532231 C224.89,76.7139236 226.64152,78.4654436 228.802221,78.4654436 Z M254.404261,78.4654436 C256.564961,78.4654436 258.316481,76.7139236 258.316481,74.5532231 C258.316481,72.3925226 256.564961,70.6410025 254.404261,70.6410025 C252.24356,70.6410025 250.49204,72.3925226 250.49204,74.5532231 C250.49204,76.7139236 252.24356,78.4654436 254.404261,78.4654436 Z M237.335961,87.0016441 C239.496662,87.0016441 241.248182,85.2501241 241.248182,83.0894236 C241.248182,80.9287231 239.496662,79.177203 237.335961,79.177203 C235.175261,79.177203 233.423741,80.9287231 233.423741,83.0894236 C233.423741,85.2501241 235.175261,87.0016441 237.335961,87.0016441 Z M245.869702,87.0016441 C248.030402,87.0016441 249.781922,85.2501241 249.781922,83.0894236 C249.781922,80.9287231 248.030402,79.177203 245.869702,79.177203 C243.709001,79.177203 241.957481,80.9287231 241.957481,83.0894236 C241.957481,85.2501241 243.709001,87.0016441 245.869702,87.0016441 Z M271.278221,35.7844411 C273.438921,35.7844411 275.190441,34.0329211 275.190441,31.8722206 C275.190441,29.7115201 273.438921,27.96 271.278221,27.96 C269.11752,27.96 267.366,29.7115201 267.366,31.8722206 C267.366,34.0329211 269.11752,35.7844411 271.278221,35.7844411 Z M296.88108,35.7844411 C299.041781,35.7844411 300.793301,34.0329211 300.793301,31.8722206 C300.793301,29.7115201 299.041781,27.96 296.88108,27.96 C294.72038,27.96 292.96886,29.7115201 292.96886,31.8722206 C292.96886,34.0329211 294.72038,35.7844411 296.88108,35.7844411 Z M271.278221,44.3206416 C273.438921,44.3206416 275.190441,42.5691216 275.190441,40.4084211 C275.190441,38.2477206 273.438921,36.4962005 271.278221,36.4962005 C269.11752,36.4962005 267.366,38.2477206 267.366,40.4084211 C267.366,42.5691216 269.11752,44.3206416 271.278221,44.3206416 Z M296.88108,44.3206416 C299.041781,44.3206416 300.793301,42.5691216 300.793301,40.4084211 C300.793301,38.2477206 299.041781,36.4962005 296.88108,36.4962005 C294.72038,36.4962005 292.96886,38.2477206 292.96886,40.4084211 C292.96886,42.5691216 294.72038,44.3206416 296.88108,44.3206416 Z M296.88108,52.8568421 C299.041781,52.8568421 300.793301,51.1053221 300.793301,48.9446216 C300.793301,46.7839211 299.041781,45.032401 296.88108,45.032401 C294.72038,45.032401 292.96886,46.7839211 292.96886,48.9446216 C292.96886,51.1053221 294.72038,52.8568421 296.88108,52.8568421 Z M271.278221,52.8568421 C273.438921,52.8568421 275.190441,51.1053221 275.190441,48.9446216 C275.190441,46.7839211 273.438921,45.032401 271.278221,45.032401 C269.11752,45.032401 267.366,46.7839211 267.366,48.9446216 C267.366,51.1053221 269.11752,52.8568421 271.278221,52.8568421 Z M271.278221,61.3930426 C273.438921,61.3930426 275.190441,59.6415226 275.190441,57.4808221 C275.190441,55.3201216 273.438921,53.5686015 271.278221,53.5686015 C269.11752,53.5686015 267.366,55.3201216 267.366,57.4808221 C267.366,59.6415226 269.11752,61.3930426 271.278221,61.3930426 Z M296.88108,61.3930426 C299.041781,61.3930426 300.793301,59.6415226 300.793301,57.4808221 C300.793301,55.3201216 299.041781,53.5686015 296.88108,53.5686015 C294.72038,53.5686015 292.96886,55.3201216 292.96886,57.4808221 C292.96886,59.6415226 294.72038,61.3930426 296.88108,61.3930426 Z M271.278221,69.9292431 C273.438921,69.9292431 275.190441,68.1777231 275.190441,66.0170226 C275.190441,63.8563221 273.438921,62.104802 271.278221,62.104802 C269.11752,62.104802 267.366,63.8563221 267.366,66.0170226 C267.366,68.1777231 269.11752,69.9292431 271.278221,69.9292431 Z M296.88108,69.9292431 C299.041781,69.9292431 300.793301,68.1777231 300.793301,66.0170226 C300.793301,63.8563221 299.041781,62.104802 296.88108,62.104802 C294.72038,62.104802 292.96886,63.8563221 292.96886,66.0170226 C292.96886,68.1777231 294.72038,69.9292431 296.88108,69.9292431 Z M271.278221,78.4654436 C273.438921,78.4654436 275.190441,76.7139236 275.190441,74.5532231 C275.190441,72.3925226 273.438921,70.6410025 271.278221,70.6410025 C269.11752,70.6410025 267.366,72.3925226 267.366,74.5532231 C267.366,76.7139236 269.11752,78.4654436 271.278221,78.4654436 Z M296.88108,78.4654436 C299.041781,78.4654436 300.793301,76.7139236 300.793301,74.5532231 C300.793301,72.3925226 299.041781,70.6410025 296.88108,70.6410025 C294.72038,70.6410025 292.96886,72.3925226 292.96886,74.5532231 C292.96886,76.7139236 294.72038,78.4654436 296.88108,78.4654436 Z M279.812781,87.0016441 C281.973481,87.0016441 283.725001,85.2501241 283.725001,83.0894236 C283.725001,80.9287231 281.973481,79.177203 279.812781,79.177203 C277.65208,79.177203 275.90056,80.9287231 275.90056,83.0894236 C275.90056,85.2501241 277.65208,87.0016441 279.812781,87.0016441 Z M288.346521,87.0016441 C290.507222,87.0016441 292.258742,85.2501241 292.258742,83.0894236 C292.258742,80.9287231 290.507222,79.177203 288.346521,79.177203 C286.185821,79.177203 284.434301,80.9287231 284.434301,83.0894236 C284.434301,85.2501241 286.185821,87.0016441 288.346521,87.0016441 Z M310.474221,35.7844411 C312.634921,35.7844411 314.386441,34.0329211 314.386441,31.8722206 C314.386441,29.7115201 312.634921,27.96 310.474221,27.96 C308.31352,27.96 306.562,29.7115201 306.562,31.8722206 C306.562,34.0329211 308.31352,35.7844411 310.474221,35.7844411 Z M319.008781,35.7844411 C321.169481,35.7844411 322.921001,34.0329211 322.921001,31.8722206 C322.921001,29.7115201 321.169481,27.96 319.008781,27.96 C316.84808,27.96 315.09656,29.7115201 315.09656,31.8722206 C315.09656,34.0329211 316.84808,35.7844411 319.008781,35.7844411 Z M327.542521,35.7844411 C329.703222,35.7844411 331.454742,34.0329211 331.454742,31.8722206 C331.454742,29.7115201 329.703222,27.96 327.542521,27.96 C325.381821,27.96 323.630301,29.7115201 323.630301,31.8722206 C323.630301,34.0329211 325.381821,35.7844411 327.542521,35.7844411 Z M336.076262,35.7844411 C338.236962,35.7844411 339.988482,34.0329211 339.988482,31.8722206 C339.988482,29.7115201 338.236962,27.96 336.076262,27.96 C333.915561,27.96 332.164041,29.7115201 332.164041,31.8722206 C332.164041,34.0329211 333.915561,35.7844411 336.076262,35.7844411 Z M344.610003,35.7844411 C346.770703,35.7844411 348.522223,34.0329211 348.522223,31.8722206 C348.522223,29.7115201 346.770703,27.96 344.610003,27.96 C342.449302,27.96 340.697782,29.7115201 340.697782,31.8722206 C340.697782,34.0329211 342.449302,35.7844411 344.610003,35.7844411 Z M327.541703,44.3206416 C329.702404,44.3206416 331.453924,42.5691216 331.453924,40.4084211 C331.453924,38.2477206 329.702404,36.4962005 327.541703,36.4962005 C325.381003,36.4962005 323.629482,38.2477206 323.629482,40.4084211 C323.629482,42.5691216 325.381003,44.3206416 327.541703,44.3206416 Z M327.541703,52.8568421 C329.702404,52.8568421 331.453924,51.1053221 331.453924,48.9446216 C331.453924,46.7839211 329.702404,45.032401 327.541703,45.032401 C325.381003,45.032401 323.629482,46.7839211 323.629482,48.9446216 C323.629482,51.1053221 325.381003,52.8568421 327.541703,52.8568421 Z M327.541703,61.3930426 C329.702404,61.3930426 331.453924,59.6415226 331.453924,57.4808221 C331.453924,55.3201216 329.702404,53.5686015 327.541703,53.5686015 C325.381003,53.5686015 323.629482,55.3201216 323.629482,57.4808221 C323.629482,59.6415226 325.381003,61.3930426 327.541703,61.3930426 Z M327.541703,69.9292431 C329.702404,69.9292431 331.453924,68.1777231 331.453924,66.0170226 C331.453924,63.8563221 329.702404,62.104802 327.541703,62.104802 C325.381003,62.104802 323.629482,63.8563221 323.629482,66.0170226 C323.629482,68.1777231 325.381003,69.9292431 327.541703,69.9292431 Z M327.541703,78.4654436 C329.702404,78.4654436 331.453924,76.7139236 331.453924,74.5532231 C331.453924,72.3925226 329.702404,70.6410025 327.541703,70.6410025 C325.381003,70.6410025 323.629482,72.3925226 323.629482,74.5532231 C323.629482,76.7139236 325.381003,78.4654436 327.541703,78.4654436 Z M327.541703,87.0016441 C329.702404,87.0016441 331.453924,85.2501241 331.453924,83.0894236 C331.453924,80.9287231 329.702404,79.177203 327.541703,79.177203 C325.381003,79.177203 323.629482,80.9287231 323.629482,83.0894236 C323.629482,85.2501241 325.381003,87.0016441 327.541703,87.0016441 Z" id="Breakout" fill="#FCFAF9" fill-rule="nonzero"></path>
        <g id="Group" transform="translate(23.575590, 130.303948)">
            <rect id="Rectangle" fill="#2BB439" x="157.390784" y="165.184754" width="132" height="15" rx="7.5"></rect>
            <rect id="Rectangle-Copy" fill="#2BB439" x="0" y="0" width="94" height="15" rx="7.5"></rect>
            <rect id="Rectangle-Copy-2" fill="#2BB439" x="217" y="1" width="94" height="15" rx="7.5"></rect>
            <rect id="Rectangle-Copy-3" fill="#2BB439" x="112" y="1" width="94" height="15" rx="7.5"></rect>
            <rect id="Rectangle-Copy-4" fill="#2BB439" x="3" y="33" width="94" height="15" rx="7.5"></rect>
            <rect id="Rectangle-Copy-5" fill="#2BB439" x="113" y="32" width="94" height="15" rx="7.5"></rect>
            <rect id="Rectangle-Copy-6" fill="#2BB439" x="218" y="32" width="94" height="15" rx="7.5"></rect>
            <ellipse id="Oval" fill="#BC2020" cx="210.92441" cy="142.196052" rx="15.5" ry="14.5"></ellipse>
        </g>
    </g>
</svg>