<?xml version="1.0" encoding="UTF-8"?>
<svg width="1440px" height="579px" viewBox="0 0 1440 579" version="1.1" xmlns="http://www.w3.org/2000/svg" xmlns:xlink="http://www.w3.org/1999/xlink">
    <title>BreakoutModal</title>
    <defs>
        <path d="M483.925201,155.050402 C487.087202,155.050402 489.650402,152.487202 489.650402,149.325201 C489.650402,146.1632 487.087202,143.6 483.925201,143.6 C480.7632,143.6 478.2,146.1632 478.2,149.325201 C478.2,152.487202 480.7632,155.050402 483.925201,155.050402 Z M496.414801,155.050402 C499.576802,155.050402 502.140002,152.487202 502.140002,149.325201 C502.140002,146.1632 499.576802,143.6 496.414801,143.6 C493.2528,143.6 490.6896,146.1632 490.6896,149.325201 C490.6896,152.487202 493.2528,155.050402 496.414801,155.050402 Z M508.903202,155.050402 C512.065203,155.050402 514.628403,152.487202 514.628403,149.325201 C514.628403,146.1632 512.065203,143.6 508.903202,143.6 C505.741201,143.6 503.178001,146.1632 503.178001,149.325201 C503.178001,152.487202 505.741201,155.050402 508.903202,155.050402 Z M483.925203,167.542402 C487.087203,167.542402 489.650403,164.979202 489.650403,161.817202 C489.650403,158.655201 487.087203,156.092001 483.925203,156.092001 C480.763202,156.092001 478.200002,158.655201 478.200002,161.817202 C478.200002,164.979202 480.763202,167.542402 483.925203,167.542402 Z M521.392802,167.542402 C524.554803,167.542402 527.118003,164.979202 527.118003,161.817202 C527.118003,158.655201 524.554803,156.092001 521.392802,156.092001 C518.230801,156.092001 515.667601,158.655201 515.667601,161.817202 C515.667601,164.979202 518.230801,167.542402 521.392802,167.542402 Z M483.925203,180.034403 C487.087203,180.034403 489.650403,177.471203 489.650403,174.309202 C489.650403,171.147202 487.087203,168.584001 483.925203,168.584001 C480.763202,168.584001 478.200002,171.147202 478.200002,174.309202 C478.200002,177.471203 480.763202,180.034403 483.925203,180.034403 Z M521.392802,180.034403 C524.554803,180.034403 527.118003,177.471203 527.118003,174.309202 C527.118003,171.147202 524.554803,168.584001 521.392802,168.584001 C518.230801,168.584001 515.667601,171.147202 515.667601,174.309202 C515.667601,177.471203 518.230801,180.034403 521.392802,180.034403 Z M483.925203,192.526404 C487.087203,192.526404 489.650403,189.963204 489.650403,186.801203 C489.650403,183.639202 487.087203,181.076002 483.925203,181.076002 C480.763202,181.076002 478.200002,183.639202 478.200002,186.801203 C478.200002,189.963204 480.763202,192.526404 483.925203,192.526404 Z M496.413604,192.526404 C499.575604,192.526404 502.138804,189.963204 502.138804,186.801203 C502.138804,183.639202 499.575604,181.076002 496.413604,181.076002 C493.251603,181.076002 490.688403,183.639202 490.688403,186.801203 C490.688403,189.963204 493.251603,192.526404 496.413604,192.526404 Z M508.902004,192.526404 C512.064005,192.526404 514.627205,189.963204 514.627205,186.801203 C514.627205,183.639202 512.064005,181.076002 508.902004,181.076002 C505.740004,181.076002 503.176804,183.639202 503.176804,186.801203 C503.176804,189.963204 505.740004,192.526404 508.902004,192.526404 Z M483.924005,205.018405 C487.086006,205.018405 489.649206,202.455204 489.649206,199.293204 C489.649206,196.131203 487.086006,193.568003 483.924005,193.568003 C480.762004,193.568003 478.198804,196.131203 478.198804,199.293204 C478.198804,202.455204 480.762004,205.018405 483.924005,205.018405 Z M521.391605,205.018405 C524.553605,205.018405 527.116805,202.455204 527.116805,199.293204 C527.116805,196.131203 524.553605,193.568003 521.391605,193.568003 C518.229604,193.568003 515.666404,196.131203 515.666404,199.293204 C515.666404,202.455204 518.229604,205.018405 521.391605,205.018405 Z M483.924005,217.510405 C487.086006,217.510405 489.649206,214.947205 489.649206,211.785204 C489.649206,208.623204 487.086006,206.060004 483.924005,206.060004 C480.762004,206.060004 478.198804,208.623204 478.198804,211.785204 C478.198804,214.947205 480.762004,217.510405 483.924005,217.510405 Z M521.391605,217.510405 C524.553605,217.510405 527.116805,214.947205 527.116805,211.785204 C527.116805,208.623204 524.553605,206.060004 521.391605,206.060004 C518.229604,206.060004 515.666404,208.623204 515.666404,211.785204 C515.666404,214.947205 518.229604,217.510405 521.391605,217.510405 Z M483.924005,230.002406 C487.086006,230.002406 489.649206,227.439206 489.649206,224.277205 C489.649206,221.115204 487.086006,218.552004 483.924005,218.552004 C480.762004,218.552004 478.198804,221.115204 478.198804,224.277205 C478.198804,227.439206 480.762004,230.002406 483.924005,230.002406 Z M496.412406,230.002406 C499.574407,230.002406 502.137607,227.439206 502.137607,224.277205 C502.137607,221.115204 499.574407,218.552004 496.412406,218.552004 C493.250405,218.552004 490.687205,221.115204 490.687205,224.277205 C490.687205,227.439206 493.250405,230.002406 496.412406,230.002406 Z M508.900807,230.002406 C512.062808,230.002406 514.626008,227.439206 514.626008,224.277205 C514.626008,221.115204 512.062808,218.552004 508.900807,218.552004 C505.738806,218.552004 503.175606,221.115204 503.175606,224.277205 C503.175606,227.439206 505.738806,230.002406 508.900807,230.002406 Z M546.685201,155.050402 C549.847202,155.050402 552.410402,152.487202 552.410402,149.325201 C552.410402,146.1632 549.847202,143.6 546.685201,143.6 C543.5232,143.6 540.96,146.1632 540.96,149.325201 C540.96,152.487202 543.5232,155.050402 546.685201,155.050402 Z M559.174801,155.050402 C562.336802,155.050402 564.900002,152.487202 564.900002,149.325201 C564.900002,146.1632 562.336802,143.6 559.174801,143.6 C556.0128,143.6 553.4496,146.1632 553.4496,149.325201 C553.4496,152.487202 556.0128,155.050402 559.174801,155.050402 Z M571.663202,155.050402 C574.825203,155.050402 577.388403,152.487202 577.388403,149.325201 C577.388403,146.1632 574.825203,143.6 571.663202,143.6 C568.501201,143.6 565.938001,146.1632 565.938001,149.325201 C565.938001,152.487202 568.501201,155.050402 571.663202,155.050402 Z M546.685203,167.542402 C549.847203,167.542402 552.410403,164.979202 552.410403,161.817202 C552.410403,158.655201 549.847203,156.092001 546.685203,156.092001 C543.523202,156.092001 540.960002,158.655201 540.960002,161.817202 C540.960002,164.979202 543.523202,167.542402 546.685203,167.542402 Z M584.152802,167.542402 C587.314803,167.542402 589.878003,164.979202 589.878003,161.817202 C589.878003,158.655201 587.314803,156.092001 584.152802,156.092001 C580.990801,156.092001 578.427601,158.655201 578.427601,161.817202 C578.427601,164.979202 580.990801,167.542402 584.152802,167.542402 Z M546.685203,180.034403 C549.847203,180.034403 552.410403,177.471203 552.410403,174.309202 C552.410403,171.147202 549.847203,168.584001 546.685203,168.584001 C543.523202,168.584001 540.960002,171.147202 540.960002,174.309202 C540.960002,177.471203 543.523202,180.034403 546.685203,180.034403 Z M584.152802,180.034403 C587.314803,180.034403 589.878003,177.471203 589.878003,174.309202 C589.878003,171.147202 587.314803,168.584001 584.152802,168.584001 C580.990801,168.584001 578.427601,171.147202 578.427601,174.309202 C578.427601,177.471203 580.990801,180.034403 584.152802,180.034403 Z M546.685203,192.526404 C549.847203,192.526404 552.410403,189.963204 552.410403,186.801203 C552.410403,183.639202 549.847203,181.076002 546.685203,181.076002 C543.523202,181.076002 540.960002,183.639202 540.960002,186.801203 C540.960002,189.963204 543.523202,192.526404 546.685203,192.526404 Z M559.173604,192.526404 C562.335604,192.526404 564.898804,189.963204 564.898804,186.801203 C564.898804,183.639202 562.335604,181.076002 559.173604,181.076002 C556.011603,181.076002 553.448403,183.639202 553.448403,186.801203 C553.448403,189.963204 556.011603,192.526404 559.173604,192.526404 Z M571.662004,192.526404 C574.824005,192.526404 577.387205,189.963204 577.387205,186.801203 C577.387205,183.639202 574.824005,181.076002 571.662004,181.076002 C568.500004,181.076002 565.936804,183.639202 565.936804,186.801203 C565.936804,189.963204 568.500004,192.526404 571.662004,192.526404 Z M546.684005,205.018405 C549.846006,205.018405 552.409206,202.455204 552.409206,199.293204 C552.409206,196.131203 549.846006,193.568003 546.684005,193.568003 C543.522004,193.568003 540.958804,196.131203 540.958804,199.293204 C540.958804,202.455204 543.522004,205.018405 546.684005,205.018405 Z M571.662004,205.018405 C574.824005,205.018405 577.387205,202.455204 577.387205,199.293204 C577.387205,196.131203 574.824005,193.568003 571.662004,193.568003 C568.500004,193.568003 565.936804,196.131203 565.936804,199.293204 C565.936804,202.455204 568.500004,205.018405 571.662004,205.018405 Z M546.684005,217.510405 C549.846006,217.510405 552.409206,214.947205 552.409206,211.785204 C552.409206,208.623204 549.846006,206.060004 546.684005,206.060004 C543.522004,206.060004 540.958804,208.623204 540.958804,211.785204 C540.958804,214.947205 543.522004,217.510405 546.684005,217.510405 Z M584.151605,217.510405 C587.313605,217.510405 589.876805,214.947205 589.876805,211.785204 C589.876805,208.623204 587.313605,206.060004 584.151605,206.060004 C580.989604,206.060004 578.426404,208.623204 578.426404,211.785204 C578.426404,214.947205 580.989604,217.510405 584.151605,217.510405 Z M546.684005,230.002406 C549.846006,230.002406 552.409206,227.439206 552.409206,224.277205 C552.409206,221.115204 549.846006,218.552004 546.684005,218.552004 C543.522004,218.552004 540.958804,221.115204 540.958804,224.277205 C540.958804,227.439206 543.522004,230.002406 546.684005,230.002406 Z M584.151605,230.002406 C587.313605,230.002406 589.876805,227.439206 589.876805,224.277205 C589.876805,221.115204 587.313605,218.552004 584.151605,218.552004 C580.989604,218.552004 578.426404,221.115204 578.426404,224.277205 C578.426404,227.439206 580.989604,230.002406 584.151605,230.002406 Z M609.445201,155.050402 C612.607202,155.050402 615.170402,152.487202 615.170402,149.325201 C615.170402,146.1632 612.607202,143.6 609.445201,143.6 C606.2832,143.6 603.72,146.1632 603.72,149.325201 C603.72,152.487202 606.2832,155.050402 609.445201,155.050402 Z M621.934801,155.050402 C625.096802,155.050402 627.660002,152.487202 627.660002,149.325201 C627.660002,146.1632 625.096802,143.6 621.934801,143.6 C618.7728,143.6 616.2096,146.1632 616.2096,149.325201 C616.2096,152.487202 618.7728,155.050402 621.934801,155.050402 Z M634.423202,155.050402 C637.585203,155.050402 640.148403,152.487202 640.148403,149.325201 C640.148403,146.1632 637.585203,143.6 634.423202,143.6 C631.261201,143.6 628.698001,146.1632 628.698001,149.325201 C628.698001,152.487202 631.261201,155.050402 634.423202,155.050402 Z M646.911603,155.050402 C650.073604,155.050402 652.636804,152.487202 652.636804,149.325201 C652.636804,146.1632 650.073604,143.6 646.911603,143.6 C643.749602,143.6 641.186402,146.1632 641.186402,149.325201 C641.186402,152.487202 643.749602,155.050402 646.911603,155.050402 Z M609.445203,167.542402 C612.607203,167.542402 615.170403,164.979202 615.170403,161.817202 C615.170403,158.655201 612.607203,156.092001 609.445203,156.092001 C606.283202,156.092001 603.720002,158.655201 603.720002,161.817202 C603.720002,164.979202 606.283202,167.542402 609.445203,167.542402 Z M609.445203,180.034403 C612.607203,180.034403 615.170403,177.471203 615.170403,174.309202 C615.170403,171.147202 612.607203,168.584001 609.445203,168.584001 C606.283202,168.584001 603.720002,171.147202 603.720002,174.309202 C603.720002,177.471203 606.283202,180.034403 609.445203,180.034403 Z M609.445203,192.526404 C612.607203,192.526404 615.170403,189.963204 615.170403,186.801203 C615.170403,183.639202 612.607203,181.076002 609.445203,181.076002 C606.283202,181.076002 603.720002,183.639202 603.720002,186.801203 C603.720002,189.963204 606.283202,192.526404 609.445203,192.526404 Z M621.933604,192.526404 C625.095604,192.526404 627.658804,189.963204 627.658804,186.801203 C627.658804,183.639202 625.095604,181.076002 621.933604,181.076002 C618.771603,181.076002 616.208403,183.639202 616.208403,186.801203 C616.208403,189.963204 618.771603,192.526404 621.933604,192.526404 Z M634.422004,192.526404 C637.584005,192.526404 640.147205,189.963204 640.147205,186.801203 C640.147205,183.639202 637.584005,181.076002 634.422004,181.076002 C631.260004,181.076002 628.696804,183.639202 628.696804,186.801203 C628.696804,189.963204 631.260004,192.526404 634.422004,192.526404 Z M609.444005,205.018405 C612.606006,205.018405 615.169206,202.455204 615.169206,199.293204 C615.169206,196.131203 612.606006,193.568003 609.444005,193.568003 C606.282004,193.568003 603.718804,196.131203 603.718804,199.293204 C603.718804,202.455204 606.282004,205.018405 609.444005,205.018405 Z M609.444005,217.510405 C612.606006,217.510405 615.169206,214.947205 615.169206,211.785204 C615.169206,208.623204 612.606006,206.060004 609.444005,206.060004 C606.282004,206.060004 603.718804,208.623204 603.718804,211.785204 C603.718804,214.947205 606.282004,217.510405 609.444005,217.510405 Z M609.444005,230.002406 C612.606006,230.002406 615.169206,227.439206 615.169206,224.277205 C615.169206,221.115204 612.606006,218.552004 609.444005,218.552004 C606.282004,218.552004 603.718804,221.115204 603.718804,224.277205 C603.718804,227.439206 606.282004,230.002406 609.444005,230.002406 Z M621.933605,230.002406 C625.095606,230.002406 627.658806,227.439206 627.658806,224.277205 C627.658806,221.115204 625.095606,218.552004 621.933605,218.552004 C618.771605,218.552004 616.208405,221.115204 616.208405,224.277205 C616.208405,227.439206 618.771605,230.002406 621.933605,230.002406 Z M634.422006,230.002406 C637.584007,230.002406 640.147207,227.439206 640.147207,224.277205 C640.147207,221.115204 637.584007,218.552004 634.422006,218.552004 C631.260005,218.552004 628.696805,221.115204 628.696805,224.277205 C628.696805,227.439206 631.260005,230.002406 634.422006,230.002406 Z M646.910407,230.002406 C650.072408,230.002406 652.635608,227.439206 652.635608,224.277205 C652.635608,221.115204 650.072408,218.552004 646.910407,218.552004 C643.748406,218.552004 641.185206,221.115204 641.185206,224.277205 C641.185206,227.439206 643.748406,230.002406 646.910407,230.002406 Z M682.8936,155.050402 C686.055601,155.050402 688.618801,152.487202 688.618801,149.325201 C688.618801,146.1632 686.055601,143.6 682.8936,143.6 C679.731599,143.6 677.168399,146.1632 677.168399,149.325201 C677.168399,152.487202 679.731599,155.050402 682.8936,155.050402 Z M695.382001,155.050402 C698.544001,155.050402 701.107202,152.487202 701.107202,149.325201 C701.107202,146.1632 698.544001,143.6 695.382001,143.6 C692.22,143.6 689.6568,146.1632 689.6568,149.325201 C689.6568,152.487202 692.22,155.050402 695.382001,155.050402 Z M670.404001,167.542402 C673.566002,167.542402 676.129202,164.979202 676.129202,161.817202 C676.129202,158.655201 673.566002,156.092001 670.404001,156.092001 C667.242001,156.092001 664.678801,158.655201 664.678801,161.817202 C664.678801,164.979202 667.242001,167.542402 670.404001,167.542402 Z M707.870402,167.542402 C711.032402,167.542402 713.595602,164.979202 713.595602,161.817202 C713.595602,158.655201 711.032402,156.092001 707.870402,156.092001 C704.708401,156.092001 702.145201,158.655201 702.145201,161.817202 C702.145201,164.979202 704.708401,167.542402 707.870402,167.542402 Z M670.404001,180.034403 C673.566002,180.034403 676.129202,177.471203 676.129202,174.309202 C676.129202,171.147202 673.566002,168.584001 670.404001,168.584001 C667.242001,168.584001 664.678801,171.147202 664.678801,174.309202 C664.678801,177.471203 667.242001,180.034403 670.404001,180.034403 Z M707.870402,180.034403 C711.032402,180.034403 713.595602,177.471203 713.595602,174.309202 C713.595602,171.147202 711.032402,168.584001 707.870402,168.584001 C704.708401,168.584001 702.145201,171.147202 702.145201,174.309202 C702.145201,177.471203 704.708401,180.034403 707.870402,180.034403 Z M707.870402,192.526404 C711.032402,192.526404 713.595602,189.963204 713.595602,186.801203 C713.595602,183.639202 711.032402,181.076002 707.870402,181.076002 C704.708401,181.076002 702.145201,183.639202 702.145201,186.801203 C702.145201,189.963204 704.708401,192.526404 707.870402,192.526404 Z M670.404001,192.526404 C673.566002,192.526404 676.129202,189.963204 676.129202,186.801203 C676.129202,183.639202 673.566002,181.076002 670.404001,181.076002 C667.242001,181.076002 664.678801,183.639202 664.678801,186.801203 C664.678801,189.963204 667.242001,192.526404 670.404001,192.526404 Z M670.404001,205.018405 C673.566002,205.018405 676.129202,202.455204 676.129202,199.293204 C676.129202,196.131203 673.566002,193.568003 670.404001,193.568003 C667.242001,193.568003 664.678801,196.131203 664.678801,199.293204 C664.678801,202.455204 667.242001,205.018405 670.404001,205.018405 Z M682.892402,205.018405 C686.054403,205.018405 688.617603,202.455204 688.617603,199.293204 C688.617603,196.131203 686.054403,193.568003 682.892402,193.568003 C679.730402,193.568003 677.167202,196.131203 677.167202,199.293204 C677.167202,202.455204 679.730402,205.018405 682.892402,205.018405 Z M695.380803,205.018405 C698.542804,205.018405 701.106004,202.455204 701.106004,199.293204 C701.106004,196.131203 698.542804,193.568003 695.380803,193.568003 C692.218802,193.568003 689.655602,196.131203 689.655602,199.293204 C689.655602,202.455204 692.218802,205.018405 695.380803,205.018405 Z M707.869204,205.018405 C711.031205,205.018405 713.594405,202.455204 713.594405,199.293204 C713.594405,196.131203 711.031205,193.568003 707.869204,193.568003 C704.707203,193.568003 702.144003,196.131203 702.144003,199.293204 C702.144003,202.455204 704.707203,205.018405 707.869204,205.018405 Z M670.402804,217.510405 C673.564805,217.510405 676.128005,214.947205 676.128005,211.785204 C676.128005,208.623204 673.564805,206.060004 670.402804,206.060004 C667.240803,206.060004 664.677603,208.623204 664.677603,211.785204 C664.677603,214.947205 667.240803,217.510405 670.402804,217.510405 Z M707.869204,217.510405 C711.031205,217.510405 713.594405,214.947205 713.594405,211.785204 C713.594405,208.623204 711.031205,206.060004 707.869204,206.060004 C704.707203,206.060004 702.144003,208.623204 702.144003,211.785204 C702.144003,214.947205 704.707203,217.510405 707.869204,217.510405 Z M670.402804,230.002406 C673.564805,230.002406 676.128005,227.439206 676.128005,224.277205 C676.128005,221.115204 673.564805,218.552004 670.402804,218.552004 C667.240803,218.552004 664.677603,221.115204 664.677603,224.277205 C664.677603,227.439206 667.240803,230.002406 670.402804,230.002406 Z M707.869204,230.002406 C711.031205,230.002406 713.594405,227.439206 713.594405,224.277205 C713.594405,221.115204 711.031205,218.552004 707.869204,218.552004 C704.707203,218.552004 702.144003,221.115204 702.144003,224.277205 C702.144003,227.439206 704.707203,230.002406 707.869204,230.002406 Z M733.765201,155.050402 C736.927202,155.050402 739.490402,152.487202 739.490402,149.325201 C739.490402,146.1632 736.927202,143.6 733.765201,143.6 C730.6032,143.6 728.04,146.1632 728.04,149.325201 C728.04,152.487202 730.6032,155.050402 733.765201,155.050402 Z M771.2328,155.050402 C774.394801,155.050402 776.958001,152.487202 776.958001,149.325201 C776.958001,146.1632 774.394801,143.6 771.2328,143.6 C768.0708,143.6 765.507599,146.1632 765.507599,149.325201 C765.507599,152.487202 768.0708,155.050402 771.2328,155.050402 Z M733.765201,167.542402 C736.927202,167.542402 739.490402,164.979202 739.490402,161.817202 C739.490402,158.655201 736.927202,156.092001 733.765201,156.092001 C730.6032,156.092001 728.04,158.655201 728.04,161.817202 C728.04,164.979202 730.6032,167.542402 733.765201,167.542402 Z M771.2328,167.542402 C774.394801,167.542402 776.958001,164.979202 776.958001,161.817202 C776.958001,158.655201 774.394801,156.092001 771.2328,156.092001 C768.0708,156.092001 765.507599,158.655201 765.507599,161.817202 C765.507599,164.979202 768.0708,167.542402 771.2328,167.542402 Z M733.765201,180.034403 C736.927202,180.034403 739.490402,177.471203 739.490402,174.309202 C739.490402,171.147202 736.927202,168.584001 733.765201,168.584001 C730.6032,168.584001 728.04,171.147202 728.04,174.309202 C728.04,177.471203 730.6032,180.034403 733.765201,180.034403 Z M758.7432,180.034403 C761.905201,180.034403 764.468401,177.471203 764.468401,174.309202 C764.468401,171.147202 761.905201,168.584001 758.7432,168.584001 C755.581199,168.584001 753.017999,171.147202 753.017999,174.309202 C753.017999,177.471203 755.581199,180.034403 758.7432,180.034403 Z M733.765201,192.526404 C736.927202,192.526404 739.490402,189.963204 739.490402,186.801203 C739.490402,183.639202 736.927202,181.076002 733.765201,181.076002 C730.6032,181.076002 728.04,183.639202 728.04,186.801203 C728.04,189.963204 730.6032,192.526404 733.765201,192.526404 Z M746.254801,192.526404 C749.416802,192.526404 751.980002,189.963204 751.980002,186.801203 C751.980002,183.639202 749.416802,181.076002 746.254801,181.076002 C743.0928,181.076002 740.5296,183.639202 740.5296,186.801203 C740.5296,189.963204 743.0928,192.526404 746.254801,192.526404 Z M758.743202,192.526404 C761.905203,192.526404 764.468403,189.963204 764.468403,186.801203 C764.468403,183.639202 761.905203,181.076002 758.743202,181.076002 C755.581201,181.076002 753.018001,183.639202 753.018001,186.801203 C753.018001,189.963204 755.581201,192.526404 758.743202,192.526404 Z M733.765203,205.018405 C736.927203,205.018405 739.490403,202.455204 739.490403,199.293204 C739.490403,196.131203 736.927203,193.568003 733.765203,193.568003 C730.603202,193.568003 728.040002,196.131203 728.040002,199.293204 C728.040002,202.455204 730.603202,205.018405 733.765203,205.018405 Z M758.743202,205.018405 C761.905203,205.018405 764.468403,202.455204 764.468403,199.293204 C764.468403,196.131203 761.905203,193.568003 758.743202,193.568003 C755.581201,193.568003 753.018001,196.131203 753.018001,199.293204 C753.018001,202.455204 755.581201,205.018405 758.743202,205.018405 Z M733.765203,217.510405 C736.927203,217.510405 739.490403,214.947205 739.490403,211.785204 C739.490403,208.623204 736.927203,206.060004 733.765203,206.060004 C730.603202,206.060004 728.040002,208.623204 728.040002,211.785204 C728.040002,214.947205 730.603202,217.510405 733.765203,217.510405 Z M771.232802,217.510405 C774.394803,217.510405 776.958003,214.947205 776.958003,211.785204 C776.958003,208.623204 774.394803,206.060004 771.232802,206.060004 C768.070801,206.060004 765.507601,208.623204 765.507601,211.785204 C765.507601,214.947205 768.070801,217.510405 771.232802,217.510405 Z M733.765203,230.002406 C736.927203,230.002406 739.490403,227.439206 739.490403,224.277205 C739.490403,221.115204 736.927203,218.552004 733.765203,218.552004 C730.603202,218.552004 728.040002,221.115204 728.040002,224.277205 C728.040002,227.439206 730.603202,230.002406 733.765203,230.002406 Z M771.232802,230.002406 C774.394803,230.002406 776.958003,227.439206 776.958003,224.277205 C776.958003,221.115204 774.394803,218.552004 771.232802,218.552004 C768.070801,218.552004 765.507601,221.115204 765.507601,224.277205 C765.507601,227.439206 768.070801,230.002406 771.232802,230.002406 Z M806.6136,155.050402 C809.775601,155.050402 812.338801,152.487202 812.338801,149.325201 C812.338801,146.1632 809.775601,143.6 806.6136,143.6 C803.451599,143.6 800.888399,146.1632 800.888399,149.325201 C800.888399,152.487202 803.451599,155.050402 806.6136,155.050402 Z M819.1032,155.050402 C822.265201,155.050402 824.828401,152.487202 824.828401,149.325201 C824.828401,146.1632 822.265201,143.6 819.1032,143.6 C815.941199,143.6 813.377999,146.1632 813.377999,149.325201 C813.377999,152.487202 815.941199,155.050402 819.1032,155.050402 Z M794.125201,167.542402 C797.287202,167.542402 799.850402,164.979202 799.850402,161.817202 C799.850402,158.655201 797.287202,156.092001 794.125201,156.092001 C790.9632,156.092001 788.4,158.655201 788.4,161.817202 C788.4,164.979202 790.9632,167.542402 794.125201,167.542402 Z M831.591601,167.542402 C834.753602,167.542402 837.316802,164.979202 837.316802,161.817202 C837.316802,158.655201 834.753602,156.092001 831.591601,156.092001 C828.4296,156.092001 825.8664,158.655201 825.8664,161.817202 C825.8664,164.979202 828.4296,167.542402 831.591601,167.542402 Z M794.125201,180.034403 C797.287202,180.034403 799.850402,177.471203 799.850402,174.309202 C799.850402,171.147202 797.287202,168.584001 794.125201,168.584001 C790.9632,168.584001 788.4,171.147202 788.4,174.309202 C788.4,177.471203 790.9632,180.034403 794.125201,180.034403 Z M831.591601,180.034403 C834.753602,180.034403 837.316802,177.471203 837.316802,174.309202 C837.316802,171.147202 834.753602,168.584001 831.591601,168.584001 C828.4296,168.584001 825.8664,171.147202 825.8664,174.309202 C825.8664,177.471203 828.4296,180.034403 831.591601,180.034403 Z M794.125201,192.526404 C797.287202,192.526404 799.850402,189.963204 799.850402,186.801203 C799.850402,183.639202 797.287202,181.076002 794.125201,181.076002 C790.9632,181.076002 788.4,183.639202 788.4,186.801203 C788.4,189.963204 790.9632,192.526404 794.125201,192.526404 Z M831.591601,192.526404 C834.753602,192.526404 837.316802,189.963204 837.316802,186.801203 C837.316802,183.639202 834.753602,181.076002 831.591601,181.076002 C828.4296,181.076002 825.8664,183.639202 825.8664,186.801203 C825.8664,189.963204 828.4296,192.526404 831.591601,192.526404 Z M794.125201,205.018405 C797.287202,205.018405 799.850402,202.455204 799.850402,199.293204 C799.850402,196.131203 797.287202,193.568003 794.125201,193.568003 C790.9632,193.568003 788.4,196.131203 788.4,199.293204 C788.4,202.455204 790.9632,205.018405 794.125201,205.018405 Z M831.591601,205.018405 C834.753602,205.018405 837.316802,202.455204 837.316802,199.293204 C837.316802,196.131203 834.753602,193.568003 831.591601,193.568003 C828.4296,193.568003 825.8664,196.131203 825.8664,199.293204 C825.8664,202.455204 828.4296,205.018405 831.591601,205.018405 Z M794.125201,217.510405 C797.287202,217.510405 799.850402,214.947205 799.850402,211.785204 C799.850402,208.623204 797.287202,206.060004 794.125201,206.060004 C790.9632,206.060004 788.4,208.623204 788.4,211.785204 C788.4,214.947205 790.9632,217.510405 794.125201,217.510405 Z M831.591601,217.510405 C834.753602,217.510405 837.316802,214.947205 837.316802,211.785204 C837.316802,208.623204 834.753602,206.060004 831.591601,206.060004 C828.4296,206.060004 825.8664,208.623204 825.8664,211.785204 C825.8664,214.947205 828.4296,217.510405 831.591601,217.510405 Z M806.613602,230.002406 C809.775602,230.002406 812.338802,227.439206 812.338802,224.277205 C812.338802,221.115204 809.775602,218.552004 806.613602,218.552004 C803.451601,218.552004 800.888401,221.115204 800.888401,224.277205 C800.888401,227.439206 803.451601,230.002406 806.613602,230.002406 Z M819.102003,230.002406 C822.264003,230.002406 824.827203,227.439206 824.827203,224.277205 C824.827203,221.115204 822.264003,218.552004 819.102003,218.552004 C815.940002,218.552004 813.376802,221.115204 813.376802,224.277205 C813.376802,227.439206 815.940002,230.002406 819.102003,230.002406 Z M856.285201,155.050402 C859.447202,155.050402 862.010402,152.487202 862.010402,149.325201 C862.010402,146.1632 859.447202,143.6 856.285201,143.6 C853.1232,143.6 850.56,146.1632 850.56,149.325201 C850.56,152.487202 853.1232,155.050402 856.285201,155.050402 Z M893.7528,155.050402 C896.914801,155.050402 899.478001,152.487202 899.478001,149.325201 C899.478001,146.1632 896.914801,143.6 893.7528,143.6 C890.5908,143.6 888.027599,146.1632 888.027599,149.325201 C888.027599,152.487202 890.5908,155.050402 893.7528,155.050402 Z M856.285201,167.542402 C859.447202,167.542402 862.010402,164.979202 862.010402,161.817202 C862.010402,158.655201 859.447202,156.092001 856.285201,156.092001 C853.1232,156.092001 850.56,158.655201 850.56,161.817202 C850.56,164.979202 853.1232,167.542402 856.285201,167.542402 Z M893.7528,167.542402 C896.914801,167.542402 899.478001,164.979202 899.478001,161.817202 C899.478001,158.655201 896.914801,156.092001 893.7528,156.092001 C890.5908,156.092001 888.027599,158.655201 888.027599,161.817202 C888.027599,164.979202 890.5908,167.542402 893.7528,167.542402 Z M893.7528,180.034403 C896.914801,180.034403 899.478001,177.471203 899.478001,174.309202 C899.478001,171.147202 896.914801,168.584001 893.7528,168.584001 C890.5908,168.584001 888.027599,171.147202 888.027599,174.309202 C888.027599,177.471203 890.5908,180.034403 893.7528,180.034403 Z M856.285201,180.034403 C859.447202,180.034403 862.010402,177.471203 862.010402,174.309202 C862.010402,171.147202 859.447202,168.584001 856.285201,168.584001 C853.1232,168.584001 850.56,171.147202 850.56,174.309202 C850.56,177.471203 853.1232,180.034403 856.285201,180.034403 Z M856.285201,192.526404 C859.447202,192.526404 862.010402,189.963204 862.010402,186.801203 C862.010402,183.639202 859.447202,181.076002 856.285201,181.076002 C853.1232,181.076002 850.56,183.639202 850.56,186.801203 C850.56,189.963204 853.1232,192.526404 856.285201,192.526404 Z M893.7528,192.526404 C896.914801,192.526404 899.478001,189.963204 899.478001,186.801203 C899.478001,183.639202 896.914801,181.076002 893.7528,181.076002 C890.5908,181.076002 888.027599,183.639202 888.027599,186.801203 C888.027599,189.963204 890.5908,192.526404 893.7528,192.526404 Z M856.285201,205.018405 C859.447202,205.018405 862.010402,202.455204 862.010402,199.293204 C862.010402,196.131203 859.447202,193.568003 856.285201,193.568003 C853.1232,193.568003 850.56,196.131203 850.56,199.293204 C850.56,202.455204 853.1232,205.018405 856.285201,205.018405 Z M893.7528,205.018405 C896.914801,205.018405 899.478001,202.455204 899.478001,199.293204 C899.478001,196.131203 896.914801,193.568003 893.7528,193.568003 C890.5908,193.568003 888.027599,196.131203 888.027599,199.293204 C888.027599,202.455204 890.5908,205.018405 893.7528,205.018405 Z M856.285201,217.510405 C859.447202,217.510405 862.010402,214.947205 862.010402,211.785204 C862.010402,208.623204 859.447202,206.060004 856.285201,206.060004 C853.1232,206.060004 850.56,208.623204 850.56,211.785204 C850.56,214.947205 853.1232,217.510405 856.285201,217.510405 Z M893.7528,217.510405 C896.914801,217.510405 899.478001,214.947205 899.478001,211.785204 C899.478001,208.623204 896.914801,206.060004 893.7528,206.060004 C890.5908,206.060004 888.027599,208.623204 888.027599,211.785204 C888.027599,214.947205 890.5908,217.510405 893.7528,217.510405 Z M868.774801,230.002406 C871.936802,230.002406 874.500002,227.439206 874.500002,224.277205 C874.500002,221.115204 871.936802,218.552004 868.774801,218.552004 C865.6128,218.552004 863.0496,221.115204 863.0496,224.277205 C863.0496,227.439206 865.6128,230.002406 868.774801,230.002406 Z M881.263202,230.002406 C884.425203,230.002406 886.988403,227.439206 886.988403,224.277205 C886.988403,221.115204 884.425203,218.552004 881.263202,218.552004 C878.101201,218.552004 875.538001,221.115204 875.538001,224.277205 C875.538001,227.439206 878.101201,230.002406 881.263202,230.002406 Z M913.645201,155.050402 C916.807202,155.050402 919.370402,152.487202 919.370402,149.325201 C919.370402,146.1632 916.807202,143.6 913.645201,143.6 C910.4832,143.6 907.92,146.1632 907.92,149.325201 C907.92,152.487202 910.4832,155.050402 913.645201,155.050402 Z M926.134801,155.050402 C929.296802,155.050402 931.860002,152.487202 931.860002,149.325201 C931.860002,146.1632 929.296802,143.6 926.134801,143.6 C922.9728,143.6 920.4096,146.1632 920.4096,149.325201 C920.4096,152.487202 922.9728,155.050402 926.134801,155.050402 Z M938.623202,155.050402 C941.785203,155.050402 944.348403,152.487202 944.348403,149.325201 C944.348403,146.1632 941.785203,143.6 938.623202,143.6 C935.461201,143.6 932.898001,146.1632 932.898001,149.325201 C932.898001,152.487202 935.461201,155.050402 938.623202,155.050402 Z M951.111603,155.050402 C954.273604,155.050402 956.836804,152.487202 956.836804,149.325201 C956.836804,146.1632 954.273604,143.6 951.111603,143.6 C947.949602,143.6 945.386402,146.1632 945.386402,149.325201 C945.386402,152.487202 947.949602,155.050402 951.111603,155.050402 Z M963.600004,155.050402 C966.762004,155.050402 969.325204,152.487202 969.325204,149.325201 C969.325204,146.1632 966.762004,143.6 963.600004,143.6 C960.438003,143.6 957.874803,146.1632 957.874803,149.325201 C957.874803,152.487202 960.438003,155.050402 963.600004,155.050402 Z M938.622004,167.542402 C941.784005,167.542402 944.347205,164.979202 944.347205,161.817202 C944.347205,158.655201 941.784005,156.092001 938.622004,156.092001 C935.460004,156.092001 932.896804,158.655201 932.896804,161.817202 C932.896804,164.979202 935.460004,167.542402 938.622004,167.542402 Z M938.622004,180.034403 C941.784005,180.034403 944.347205,177.471203 944.347205,174.309202 C944.347205,171.147202 941.784005,168.584001 938.622004,168.584001 C935.460004,168.584001 932.896804,171.147202 932.896804,174.309202 C932.896804,177.471203 935.460004,180.034403 938.622004,180.034403 Z M938.622004,192.526404 C941.784005,192.526404 944.347205,189.963204 944.347205,186.801203 C944.347205,183.639202 941.784005,181.076002 938.622004,181.076002 C935.460004,181.076002 932.896804,183.639202 932.896804,186.801203 C932.896804,189.963204 935.460004,192.526404 938.622004,192.526404 Z M938.622004,205.018405 C941.784005,205.018405 944.347205,202.455204 944.347205,199.293204 C944.347205,196.131203 941.784005,193.568003 938.622004,193.568003 C935.460004,193.568003 932.896804,196.131203 932.896804,199.293204 C932.896804,202.455204 935.460004,205.018405 938.622004,205.018405 Z M938.622004,217.510405 C941.784005,217.510405 944.347205,214.947205 944.347205,211.785204 C944.347205,208.623204 941.784005,206.060004 938.622004,206.060004 C935.460004,206.060004 932.896804,208.623204 932.896804,211.785204 C932.896804,214.947205 935.460004,217.510405 938.622004,217.510405 Z M938.622004,230.002406 C941.784005,230.002406 944.347205,227.439206 944.347205,224.277205 C944.347205,221.115204 941.784005,218.552004 938.622004,218.552004 C935.460004,218.552004 932.896804,221.115204 932.896804,224.277205 C932.896804,227.439206 935.460004,230.002406 938.622004,230.002406 Z" id="path-1"></path>
    </defs>
    <g id="Page-1" stroke="none" stroke-width="1" fill="none" fill-rule="evenodd">
        <g id="BreakoutModal" fill-rule="nonzero">
            <rect id="Rectangle" fill="#88C0D0" x="0" y="0" width="1440" height="579"></rect>
            <g id="Group-Copy" transform="translate(453.575590, 242.303948)">
                <rect id="Rectangle" fill="#2BB439" x="260.42441" y="121.696052" width="222" height="19" rx="8"></rect>
                <rect id="Rectangle-Copy" fill="#2BB439" x="0.424409614" y="0.69605155" width="158" height="19" rx="8"></rect>
                <rect id="Rectangle-Copy-2" fill="#2BB439" x="364.42441" y="2.69605155" width="158" height="19" rx="8"></rect>
                <rect id="Rectangle-Copy-3" fill="#2BB439" x="188.42441" y="2.69605155" width="158" height="19" rx="8"></rect>
                <rect id="Rectangle-Copy-4" fill="#2BB439" x="5.42440961" y="43.6960516" width="158" height="19" rx="8"></rect>
                <rect id="Rectangle-Copy-5" fill="#2BB439" x="189.42441" y="41.6960516" width="158" height="19" rx="8"></rect>
                <rect id="Rectangle-Copy-6" fill="#2BB439" x="366.42441" y="41.6960516" width="158" height="19" rx="8"></rect>
                <ellipse id="Oval" fill="#BC2020" cx="281.42441" cy="85.1960516" rx="26" ry="18.5"></ellipse>
            </g>
            <g id="Breakout">
                <use fill="#000000" xlink:href="#path-1"></use>
                <use fill="#FCFAF9" xlink:href="#path-1"></use>
            </g>
        </g>
    </g>
</svg>