<?xml version="1.0" encoding="UTF-8"?>
<svg width="350px" height="350px" viewBox="0 0 350 350" version="1.1" xmlns="http://www.w3.org/2000/svg" xmlns:xlink="http://www.w3.org/1999/xlink">
    <title>Desktop HD Copy</title>
    <g id="Desktop-HD-Copy" stroke="none" stroke-width="1" fill="none" fill-rule="evenodd">
        <rect fill="#3B4254" x="0" y="0" width="350" height="350"></rect>
        <path d="M56.5823999,85 L56.5823999,69.4976001 L61.0128003,69.4976001 C68.3423999,69.4976001 74.3047998,63.5352002 74.3047998,56.2064001 L74.3047998,40.6952002 C74.3047998,33.3664001 68.3423999,27.4040002 61.0128003,27.4040002 L30,27.4047998 L30,85 L56.5823999,85 Z M61.0128003,60.6359985 L56.5823999,60.6359985 L56.5823999,36.2647986 L61.0128003,36.2647986 C63.46,36.2647986 65.4440002,38.2479993 65.4440002,40.695199 L65.4440002,56.2055994 C65.4440002,58.6527991 63.46,60.6359985 61.0128003,60.6359985 Z M86.3807996,84.9999988 L86.3807996,69.4935986 L95.2415991,69.4935986 L95.2415991,84.9999988 L121.823999,84.9999988 L121.823999,36.2655994 C121.823999,31.3719995 117.856799,27.4047998 112.963199,27.4047998 L86.3807996,27.4047998 C81.4871997,27.4047998 77.52,31.3719995 77.52,36.2655994 L77.52,84.9999988 L86.3807996,84.9999988 Z M95.2415991,60.6328003 L86.3807996,60.6328003 L86.3807996,36.2656006 L95.2415991,36.2656006 L95.2415991,60.6328003 Z M160.883999,84.9999988 L160.883999,76.1391992 L152.023199,76.1391992 L152.023199,36.2655994 L160.883999,36.2655994 L160.883999,27.4047998 L134.3008,27.4047998 C129.4072,27.4047998 125.44,31.3719995 125.44,36.2655994 L125.44,76.1391992 C125.44,81.0327991 129.4072,84.9999988 134.3008,84.9999988 L160.883999,84.9999988 Z M190.6624,84.9991992 L190.6624,36.263999 L199.523199,36.263999 L199.523199,84.9983984 L208.383999,84.9983984 L208.383999,36.263999 L217.244799,36.263999 L217.244799,84.9991992 L226.105598,84.9991992 L226.105598,36.2647998 C226.105598,31.3712 222.138398,27.4040002 217.244799,27.4040002 L208.3848,27.4040002 C206.7688,27.4040002 205.2584,27.8432007 203.954399,28.5992004 C202.6496,27.8432007 201.139199,27.4040002 199.523199,27.4040002 L172.9408,27.4040002 C168.0472,27.4040002 164.08,31.3712 164.08,36.2647998 L164.08,84.9991992 L190.6624,84.9991992 Z M238.9408,84.9999988 L238.9408,69.4935986 L247.801599,69.4935986 L247.801599,84.9999988 L274.383999,84.9999988 L274.383999,36.2655994 C274.383999,31.3719995 270.416799,27.4047998 265.523199,27.4047998 L238.9408,27.4047998 C234.0472,27.4047998 230.08,31.3719995 230.08,36.2655994 L230.08,84.9999988 L238.9408,84.9999988 Z M247.801599,60.6328003 L238.9408,60.6328003 L238.9408,36.2656006 L247.801599,36.2656006 L247.801599,60.6328003 Z M304.9824,84.9999988 L304.9824,36.2647986 L313.843199,36.2647986 L313.843199,84.9999988 L322.703999,84.9999988 L322.703999,36.2655994 C322.703999,31.3719995 318.736799,27.4047998 313.843199,27.4047998 L287.2608,27.4047998 C282.3672,27.4047998 278.4,31.3719995 278.4,36.2655994 L278.4,84.9999988 L304.9824,84.9999988 Z" id="Pacman" stroke="#000000" fill="#EDDE37" fill-rule="nonzero"></path>
        <path d="M186.5,118 C202.613328,118 217.562761,123.079391 229.891786,131.75266 L229.891786,131.75266 L169.952517,193.821146 L234.825418,256.469409 C221.651993,267.427449 204.829086,274 186.5,274 C165.377267,274 146.255127,265.2711 132.413076,251.161138 C118.564153,237.044172 110,217.541331 110,196 C110,174.458669 118.564153,154.955828 132.413076,140.838862 C146.255127,126.7289 165.377267,118 186.5,118 Z" id="Combined-Shape" stroke="#000000" stroke-width="2" fill="#EDDE37"></path>
        <g id="Group" transform="translate(42.383376, 144.216716) rotate(-21.000000) translate(-42.383376, -144.216716) translate(18.383376, 119.716716)">
            <polygon id="Path" stroke="#979797" fill="#F0B2CD" points="0.228683836 20.641072 0.228683836 48.2317692 4.05026535 48.2317692 4.05026535 45.7674717 7.15924214 45.7674717 7.15924214 41.9957554 10.1749974 41.9957554 10.1749974 45.7674717 13.6151494 45.7674717 13.6151494 48.2317692 20.8876876 48.2317692 20.8876876 41.9957554 26.7405444 41.9957554 26.7405444 48.2317692 33.9814224 48.2317692 33.9814224 45.7674717 37.2115119 45.7674717 37.2115119 41.9957554 40.5423426 41.9957554 40.5072089 45.6035219 43.8111023 45.6501944 43.878079 48.2317692 47.2286838 48.2317692 47.2286838 20.641072 44.238307 20.641072 44.1420163 9.90351462 40.5423426 9.87481096 40.5423426 6.29736545 37.2115119 6.29736545 37.2115119 3.081428 30.6773105 3.08768897 30.6518296 0.231769234 17.0955048 0.231769234 17.0955048 3.081428 10.1749974 3.081428 10.1749974 6.29736545 7.15924214 6.29736545 7.15924214 9.87481096 3.46128599 9.87481096 3.46128599 20.641072"></polygon>
            <polygon id="Path-2" stroke="#979797" fill="#FFFFFF" points="10.2286838 12.9752911 10.2286838 23.5810498 13.4076425 23.5810498 13.4076425 27.2317692 20.2157103 27.2317692 20.2157103 23.5810498 23.2286838 23.5810498 23.2286838 12.9752911 20.2157103 12.9752911 20.2157103 9.23176923 13.4076425 9.23176923 13.4076425 12.9752911"></polygon>
            <polygon id="Path-2-Copy" stroke="#979797" fill="#FFFFFF" points="30.2286838 12.9752911 30.2286838 23.5810498 33.4076425 23.5810498 33.4076425 27.2317692 40.2157103 27.2317692 40.2157103 23.5810498 43.2286838 23.5810498 43.2286838 12.9752911 40.2157103 12.9752911 40.2157103 9.23176923 33.4076425 9.23176923 33.4076425 12.9752911"></polygon>
            <rect id="Rectangle" fill="#3C5CA7" x="17.2286838" y="17.2317692" width="7" height="7"></rect>
            <rect id="Rectangle-Copy" fill="#3C5CA7" x="37.2286838" y="17.2317692" width="7" height="7"></rect>
        </g>
        <g id="Group-Copy" transform="translate(309.604594, 147.306965) rotate(7.000000) translate(-309.604594, -147.306965) translate(283.604594, 117.806965)">
            <polygon id="Path" stroke="#979797" fill="#6FF8D9" points="0.358776102 24.8693108 0.358776102 58.20807 4.50559859 58.20807 4.50559859 55.2303771 7.87916915 55.2303771 7.87916915 50.6728866 11.1515844 50.6728866 11.1515844 55.2303771 14.8845153 55.2303771 14.8845153 58.20807 22.775993 58.20807 22.775993 50.6728866 29.1269652 50.6728866 29.1269652 58.20807 36.9840882 58.20807 36.9840882 55.2303771 40.4890789 55.2303771 40.4890789 50.6728866 44.1033846 50.6728866 44.0652607 55.0322711 47.6503365 55.088667 47.7230135 58.20807 51.3587761 58.20807 51.3587761 24.8693108 48.1138991 24.8693108 48.0094134 11.8947623 44.1033846 11.8600787 44.1033846 7.53733208 40.4890789 7.53733208 40.4890789 3.65140766 33.3987753 3.658973 33.3711258 0.208069982 18.6610712 0.208069982 18.6610712 3.65140766 11.1515844 3.65140766 11.1515844 7.53733208 7.87916915 7.53733208 7.87916915 11.8600787 3.86649333 11.8600787 3.86649333 24.8693108"></polygon>
            <polygon id="Path-2" stroke="#979797" fill="#FFFFFF" points="11.4322714 15.6352671 11.4322714 28.5978611 14.8557654 28.5978611 14.8557654 33.0598515 22.1875306 33.0598515 22.1875306 28.5978611 25.4322714 28.5978611 25.4322714 15.6352671 22.1875306 15.6352671 22.1875306 11.0598515 14.8557654 11.0598515 14.8557654 15.6352671"></polygon>
            <polygon id="Path-2-Copy" stroke="#979797" fill="#FFFFFF" points="32.5194792 15.0611032 32.5194792 28.0236972 35.9429732 28.0236972 35.9429732 32.4856876 43.2747385 32.4856876 43.2747385 28.0236972 46.5194792 28.0236972 46.5194792 15.0611032 43.2747385 15.0611032 43.2747385 10.4856876 35.9429732 10.4856876 35.9429732 15.0611032"></polygon>
            <rect id="Rectangle" fill="#3C5CA7" x="10.5839561" y="19.539875" width="8" height="8"></rect>
            <rect id="Rectangle-Copy" fill="#3C5CA7" x="32.7855795" y="19.8363879" width="8" height="8"></rect>
        </g>
        <g id="Group-Copy-2" transform="translate(69.122720, 271.295558) rotate(13.000000) translate(-69.122720, -271.295558) translate(47.622720, 249.295558)">
            <polygon id="Path" stroke="#979797" fill="#E63631" points="0.426415071 19.0101419 0.426415071 43.7268082 3.84144536 43.7268082 3.84144536 41.5192083 6.61967994 41.5192083 6.61967994 38.1403791 9.31461014 38.1403791 9.31461014 41.5192083 12.3887886 41.5192083 12.3887886 43.7268082 18.8876525 43.7268082 18.8876525 38.1403791 24.1178649 38.1403791 24.1178649 43.7268082 30.5884368 43.7268082 30.5884368 41.5192083 33.4748997 41.5192083 33.4748997 38.1403791 36.4513867 38.1403791 36.4199906 41.3723366 39.372406 41.4141473 39.4322576 43.7268082 42.4264151 43.7268082 42.4264151 19.0101419 39.7541634 19.0101419 39.6681164 9.39108009 36.4513867 9.36536639 36.4513867 6.16057146 33.4748997 6.16057146 33.4748997 3.2796275 27.6358262 3.28523628 27.613056 0.726808184 15.4988934 0.726808184 15.4988934 3.2796275 9.31461014 3.2796275 9.31461014 6.16057146 6.61967994 6.16057146 6.61967994 9.36536639 3.31512338 9.36536639 3.31512338 19.0101419"></polygon>
            <polygon id="Path-2" stroke="#979797" fill="#FFFFFF" points="9.09238289 12.345733 9.09238289 21.7730741 12.0268063 21.7730741 12.0268063 25.018158 18.3111765 25.018158 18.3111765 21.7730741 21.0923829 21.7730741 21.0923829 12.345733 18.3111765 12.345733 18.3111765 9.01815803 12.0268063 9.01815803 12.0268063 12.345733"></polygon>
            <polygon id="Path-2-Copy" stroke="#979797" fill="#FFFFFF" points="26.5564782 12.4190453 26.5564782 21.8463864 29.4909016 21.8463864 29.4909016 25.0914704 35.7752718 25.0914704 35.7752718 21.8463864 38.5564782 21.8463864 38.5564782 12.4190453 35.7752718 12.4190453 35.7752718 9.09147037 29.4909016 9.09147037 29.4909016 12.4190453"></polygon>
            <rect id="Rectangle" fill="#3C5CA7" x="15.6903463" y="16.2664151" width="6" height="6"></rect>
            <rect id="Rectangle-Copy" fill="#3C5CA7" x="33.1544416" y="16.3397274" width="6" height="6"></rect>
        </g>
        <g id="Group-Copy-3" transform="translate(274.842539, 267.577533) rotate(14.000000) translate(-274.842539, -267.577533) translate(253.842539, 244.077533)">
            <polygon id="Path" stroke="#979797" fill="#F6B146" points="0.0279183941 19.5814052 0.0279183941 46.0224901 3.36163844 46.0224901 3.36163844 43.6608716 6.07372457 43.6608716 6.07372457 40.0463101 8.70448977 40.0463101 8.70448977 43.6608716 11.7054735 43.6608716 11.7054735 46.0224901 18.0496026 46.0224901 18.0496026 40.0463101 23.1552861 40.0463101 23.1552861 46.0224901 29.4717967 46.0224901 29.4717967 43.6608716 32.2895343 43.6608716 32.2895343 40.0463101 35.1951526 40.0463101 35.1645041 43.503753 38.0466239 43.5484808 38.1050504 46.0224901 41.0279184 46.0224901 41.0279184 19.5814052 38.4192918 19.5814052 38.3352935 9.29124605 35.1951526 9.26373837 35.1951526 5.8353531 32.2895343 5.8353531 32.2895343 2.75341304 26.5894864 2.75941314 26.5672584 0.0224900547 14.7415282 0.0224900547 14.7415282 2.75341304 8.70448977 2.75341304 8.70448977 5.8353531 6.07372457 5.8353531 6.07372457 9.26373837 2.84784793 9.26373837 2.84784793 19.5814052"></polygon>
            <polygon id="Path-2" stroke="#979797" fill="#FFFFFF" points="9.57424317 12.7188038 9.57424317 22.7353537 12.2641313 22.7353537 12.2641313 26.1832554 18.024804 26.1832554 18.024804 22.7353537 20.5742432 22.7353537 20.5742432 12.7188038 18.024804 12.7188038 18.024804 9.18325542 12.2641313 9.18325542 12.2641313 12.7188038"></polygon>
            <polygon id="Path-2-Copy" stroke="#979797" fill="#FFFFFF" points="27.0369581 12.4873145 27.0369581 22.5038644 29.7268462 22.5038644 29.7268462 25.9517661 35.4875189 25.9517661 35.4875189 22.5038644 38.0369581 22.5038644 38.0369581 12.4873145 35.4875189 12.4873145 35.4875189 8.9517661 29.7268462 8.9517661 29.7268462 12.4873145"></polygon>
            <rect id="Rectangle" fill="#3C5CA7" x="15.2257482" y="16.4893379" width="6" height="7"></rect>
            <rect id="Rectangle-Copy" fill="#3C5CA7" x="32.6884631" y="16.2578485" width="6" height="7"></rect>
        </g>
    </g>
</svg>