<?xml version="1.0" encoding="UTF-8"?>
<svg width="1440px" height="579px" viewBox="0 0 1440 579" version="1.1" xmlns="http://www.w3.org/2000/svg" xmlns:xlink="http://www.w3.org/1999/xlink">
    <title>PacmanModal</title>
    <defs>
        <path d="M514.8736,287 L514.8736,263.7464 L521.5192,263.7464 C532.5136,263.7464 541.4572,254.8028 541.4572,243.8096 L541.4572,220.5428 C541.4572,209.5496 532.5136,200.606 521.5192,200.606 L475,200.6072 L475,287 L514.8736,287 Z M521.5192,250.453998 L514.8736,250.453998 L514.8736,213.897198 L521.5192,213.897198 C525.19,213.897198 528.166,216.871999 528.166,220.542798 L528.166,243.808399 C528.166,247.479199 525.19,250.453998 521.5192,250.453998 Z M559.571199,286.999998 L559.571199,263.740398 L572.862399,263.740398 L572.862399,286.999998 L612.735999,286.999998 L612.735999,213.898399 C612.735999,206.557999 606.785199,200.6072 599.444799,200.6072 L559.571199,200.6072 C552.2308,200.6072 546.28,206.557999 546.28,213.898399 L546.28,286.999998 L559.571199,286.999998 Z M572.862399,250.4492 L559.571199,250.4492 L559.571199,213.898401 L572.862399,213.898401 L572.862399,250.4492 Z M671.325999,286.999998 L671.325999,273.708799 L658.034799,273.708799 L658.034799,213.898399 L671.325999,213.898399 L671.325999,200.6072 L631.451199,200.6072 C624.1108,200.6072 618.16,206.557999 618.16,213.898399 L618.16,273.708799 C618.16,281.049199 624.1108,286.999998 631.451199,286.999998 L671.325999,286.999998 Z M715.9936,286.998799 L715.9936,213.895999 L729.284799,213.895999 L729.284799,286.997598 L742.575999,286.997598 L742.575999,213.895999 L755.867198,213.895999 L755.867198,286.998799 L769.158397,286.998799 L769.158397,213.8972 C769.158397,206.5568 763.207598,200.606 755.867198,200.606 L742.5772,200.606 C740.1532,200.606 737.887599,201.264801 735.931599,202.398801 C733.974399,201.264801 731.708799,200.606 729.284799,200.606 L689.411199,200.606 C682.0708,200.606 676.12,206.5568 676.12,213.8972 L676.12,286.998799 L715.9936,286.998799 Z M788.411199,286.999998 L788.411199,263.740398 L801.702399,263.740398 L801.702399,286.999998 L841.575999,286.999998 L841.575999,213.898399 C841.575999,206.557999 835.625199,200.6072 828.284799,200.6072 L788.411199,200.6072 C781.0708,200.6072 775.12,206.557999 775.12,213.898399 L775.12,286.999998 L788.411199,286.999998 Z M801.702399,250.4492 L788.411199,250.4492 L788.411199,213.898401 L801.702399,213.898401 L801.702399,250.4492 Z M887.4736,286.999998 L887.4736,213.897198 L900.764799,213.897198 L900.764799,286.999998 L914.055999,286.999998 L914.055999,213.898399 C914.055999,206.557999 908.105199,200.6072 900.764799,200.6072 L860.891199,200.6072 C853.5508,200.6072 847.6,206.557999 847.6,213.898399 L847.6,286.999998 L887.4736,286.999998 Z" id="path-1"></path>
    </defs>
    <g id="Page-1" stroke="none" stroke-width="1" fill="none" fill-rule="evenodd">
        <g id="PacmanModal" fill-rule="nonzero">
            <rect id="Rectangle" fill="#3B4254" x="0" y="0" width="1440" height="579"></rect>
            <g id="Group-Copy-4" transform="translate(919.870580, 182.933344) rotate(7.000000) translate(-919.870580, -182.933344) translate(877.370580, 137.933344)">
                <polygon id="Path" stroke="#979797" fill="#6FF8D9" points="0.575643771 37.8963629 0.575643771 89.0541141 7.40570434 89.0541141 7.40570434 84.4848957 12.9621735 84.4848957 12.9621735 77.491505 18.3520339 77.491505 18.3520339 84.4848957 24.5003908 84.4848957 24.5003908 89.0541141 37.4981186 89.0541141 37.4981186 77.491505 47.9585434 77.491505 47.9585434 89.0541141 60.8996872 89.0541141 60.8996872 84.4848957 66.672613 84.4848957 66.672613 77.491505 72.6255871 77.491505 72.5627949 84.1809055 78.4676257 84.267444 78.5873288 89.0541141 84.5756438 89.0541141 84.5756438 37.8963629 79.2311405 37.8963629 79.0590465 17.987142 72.6255871 17.9339206 72.6255871 11.3007404 66.672613 11.3007404 66.672613 5.33785638 54.9944659 5.34946527 54.9489256 0.0541140823 30.7206004 0.0541140823 30.7206004 5.33785638 18.3520339 5.33785638 18.3520339 11.3007404 12.9621735 11.3007404 12.9621735 17.9339206 6.35306038 17.9339206 6.35306038 37.8963629"></polygon>
                <polygon id="Path-2" stroke="#979797" fill="#FFFFFF" points="19.1305424 23.4980121 19.1305424 43.5311119 24.7548539 43.5311119 24.7548539 50.4269153 36.7998968 50.4269153 36.7998968 43.5311119 42.1305424 43.5311119 42.1305424 23.4980121 36.7998968 23.4980121 36.7998968 16.4269153 24.7548539 16.4269153 24.7548539 23.4980121"></polygon>
                <polygon id="Path-2-Copy" stroke="#979797" fill="#FFFFFF" points="54.2352657 22.2102235 54.2352657 42.2433234 59.8595773 42.2433234 59.8595773 49.1391267 71.9046202 49.1391267 71.9046202 42.2433234 77.2352657 42.2433234 77.2352657 22.2102235 71.9046202 22.2102235 71.9046202 15.1391267 59.8595773 15.1391267 59.8595773 22.2102235"></polygon>
                <rect id="Rectangle" fill="#3C5CA7" x="17.3045887" y="29.2725468" width="13" height="12"></rect>
                <rect id="Rectangle-Copy" fill="#3C5CA7" x="54.638143" y="29.7261119" width="13" height="12"></rect>
            </g>
            <g id="Group-Copy-4" transform="translate(424.309892, 191.066438) rotate(-21.000000) translate(-424.309892, -191.066438) translate(386.309892, 136.066438)">
                <polygon id="Path" stroke="#979797" fill="#F0B2CD" points="0.880474677 46.385438 0.880474677 109.039313 6.97874305 109.039313 6.97874305 103.443304 11.9398762 103.443304 11.9398762 94.8783649 16.7522516 94.8783649 16.7522516 103.443304 22.2418559 103.443304 22.2418559 109.039313 33.8469701 109.039313 33.8469701 94.8783649 43.1866351 94.8783649 43.1866351 109.039313 54.7412277 109.039313 54.7412277 103.443304 59.8956258 103.443304 59.8956258 94.8783649 65.2107812 94.8783649 65.1547168 103.071001 70.4268871 103.176987 70.5337649 109.039313 75.8804747 109.039313 75.8804747 46.385438 71.1085967 46.385438 70.9549414 22.0022348 65.2107812 21.9370536 65.2107812 13.8132711 59.8956258 13.8132711 59.8956258 6.51041315 49.4687088 6.52463077 49.4280478 0.0393130323 27.7956146 0.0393130323 27.7956146 6.51041315 16.7522516 6.51041315 16.7522516 13.8132711 11.9398762 13.8132711 11.9398762 21.9370536 6.03888237 21.9370536 6.03888237 46.385438"></polygon>
                <polygon id="Path-2" stroke="#979797" fill="#FFFFFF" points="15.8101314 29.3636933 15.8101314 53.5212548 20.9453724 53.5212548 20.9453724 61.8367824 31.9430203 61.8367824 31.9430203 53.5212548 36.8101314 53.5212548 36.8101314 29.3636933 31.9430203 29.3636933 31.9430203 20.8367824 20.9453724 20.8367824 20.9453724 29.3636933"></polygon>
                <polygon id="Path-2-Copy" stroke="#979797" fill="#FFFFFF" points="48.1179596 28.9117666 48.1179596 53.0693282 53.2532006 53.0693282 53.2532006 61.3848558 64.2508485 61.3848558 64.2508485 53.0693282 69.1179596 53.0693282 69.1179596 28.9117666 64.2508485 28.9117666 64.2508485 20.3848558 53.2532006 20.3848558 53.2532006 28.9117666"></polygon>
                <rect id="Rectangle" fill="#3C5CA7" x="27.382855" y="38.5376771" width="11" height="16"></rect>
                <rect id="Rectangle-Copy" fill="#3C5CA7" x="59.3323152" y="39.0193309" width="11" height="16"></rect>
            </g>
            <g id="Pacman">
                <use fill="#000000" xlink:href="#path-1"></use>
                <use stroke="#000000" stroke-width="1" fill="#EDDE37" xlink:href="#path-1"></use>
            </g>
            <path d="M710.5,298 C726.613328,298 741.562761,303.079391 753.891786,311.75266 L753.891786,311.75266 L693.952517,373.821146 L758.825418,436.469409 C745.651993,447.427449 728.829086,454 710.5,454 C689.377267,454 670.255127,445.2711 656.413076,431.161138 C642.564153,417.044172 634,397.541331 634,376 C634,354.458669 642.564153,334.955828 656.413076,320.838862 C670.255127,306.7289 689.377267,298 710.5,298 Z" id="Combined-Shape-Copy" stroke="#000000" stroke-width="2" fill="#EDDE37"></path>
            <g id="Group-Copy-4" transform="translate(510.010017, 390.954077) rotate(13.000000) translate(-510.010017, -390.954077) translate(469.510017, 353.954077)">
                <polygon id="Path" stroke="#979797" fill="#E63631" points="0.388094898 31.0989622 0.388094898 73.0598143 6.89291449 73.0598143 6.89291449 69.3120284 12.1847899 69.3120284 12.1847899 63.5758765 17.3179903 63.5758765 17.3179903 69.3120284 23.1735682 69.3120284 23.1735682 73.0598143 35.5523567 73.0598143 35.5523567 63.5758765 45.514666 63.5758765 45.514666 73.0598143 57.8395648 73.0598143 57.8395648 69.3120284 63.3375894 69.3120284 63.3375894 63.5758765 69.0070886 63.5758765 68.9472865 69.0626882 74.5709348 69.1336691 74.6849378 73.0598143 80.3880949 73.0598143 80.3880949 31.0989622 75.2980917 31.0989622 75.1341927 14.768927 69.0070886 14.7252736 69.0070886 9.28457519 63.3375894 9.28457519 63.3375894 4.39367032 52.2155446 4.40319221 52.1721729 0.0598142753 29.0975774 0.0598142753 29.0975774 4.39367032 17.3179903 4.39367032 17.3179903 9.28457519 12.1847899 9.28457519 12.1847899 14.7252736 5.89039643 14.7252736 5.89039643 31.0989622"></polygon>
                <polygon id="Path-2" stroke="#979797" fill="#FFFFFF" points="17.1571177 20.0940613 17.1571177 36.0026994 22.7814292 36.0026994 22.7814292 41.4787786 34.8264721 41.4787786 34.8264721 36.0026994 40.1571177 36.0026994 40.1571177 20.0940613 34.8264721 20.0940613 34.8264721 14.4787786 22.7814292 14.4787786 22.7814292 20.0940613"></polygon>
                <polygon id="Path-2-Copy" stroke="#979797" fill="#FFFFFF" points="51.1109383 20.465637 51.1109383 36.3742752 56.7352498 36.3742752 56.7352498 41.8503543 68.7802927 41.8503543 68.7802927 36.3742752 74.1109383 36.3742752 74.1109383 20.465637 68.7802927 20.465637 68.7802927 14.8503543 56.7352498 14.8503543 56.7352498 20.465637"></polygon>
                <rect id="Rectangle" fill="#3C5CA7" x="30.2405689" y="26.9881076" width="11" height="10"></rect>
                <rect id="Rectangle-Copy" fill="#3C5CA7" x="62.9950683" y="26.6102643" width="11" height="10"></rect>
            </g>
            <g id="Group-Copy-4" transform="translate(896.657328, 375.080737) rotate(14.000000) translate(-896.657328, -375.080737) translate(868.157328, 339.080737)">
                <g id="Group" transform="translate(0.933922, 0.823909)" stroke="#979797">
                    <polygon id="Path" fill="#F6B146" points="-6.21118333e-13 30.1887603 -6.21118333e-13 71 4.55337371 71 4.55337371 67.3548932 8.25768649 67.3548932 8.25768649 61.7758962 11.8509268 61.7758962 11.8509268 67.3548932 15.9498313 67.3548932 15.9498313 71 24.6149832 71 24.6149832 61.7758962 31.5885998 61.7758962 31.5885998 71 40.216029 71 40.216029 67.3548932 44.0646462 67.3548932 44.0646462 61.7758962 48.0332956 61.7758962 47.9914341 67.1123842 51.9279879 67.1814205 52.00779 71 56 71 56 30.1887603 52.4369978 30.1887603 52.3222685 14.3061234 48.0332956 14.2636659 48.0332956 8.97202774 44.0646462 8.97202774 44.0646462 4.21512026 36.2792148 4.22438128 36.2488546 0 20.0966378 0 20.0966378 4.21512026 11.8509268 4.21512026 11.8509268 8.97202774 8.25768649 8.97202774 8.25768649 14.2636659 3.85161108 14.2636659 3.85161108 30.1887603"></polygon>
                    <polygon id="Path-2" fill="#FFFFFF" points="13.0388826 19.5964843 13.0388826 35.0568113 16.7128762 35.0568113 16.7128762 40.3785726 24.581112 40.3785726 24.581112 35.0568113 28.0632729 35.0568113 28.0632729 19.5964843 24.581112 19.5964843 24.581112 14.1394422 16.7128762 14.1394422 16.7128762 19.5964843"></polygon>
                    <polygon id="Path-2-Copy" fill="#FFFFFF" points="36.8903957 19.2391855 36.8903957 34.6995126 40.5643892 34.6995126 40.5643892 40.0212739 48.4326251 40.0212739 48.4326251 34.6995126 51.9147859 34.6995126 51.9147859 19.2391855 48.4326251 19.2391855 48.4326251 13.7821435 40.5643892 13.7821435 40.5643892 19.2391855"></polygon>
                </g>
                <rect id="Rectangle" fill="#3C5CA7" x="21.7837208" y="26.4562745" width="8" height="11"></rect>
                <rect id="Rectangle-Copy" fill="#3C5CA7" x="45.310132" y="25.7435495" width="8" height="11"></rect>
            </g>
        </g>
    </g>
</svg>