<?xml version="1.0" encoding="UTF-8"?>
<svg width="750px" height="400px" viewBox="0 0 750 400" version="1.1" xmlns="http://www.w3.org/2000/svg" xmlns:xlink="http://www.w3.org/1999/xlink">
    <title>TheMovieDBbg2</title>
    <defs>
        <path d="M371.351562,161 L371.351562,114.980469 L378.597656,114.980469 L378.597656,107.351562 L356.367188,107.351562 L356.367188,114.980469 L363.613281,114.980469 L363.613281,161 L371.351562,161 Z M391.257812,161 L391.257812,146.808594 L398.011719,146.808594 L398.011719,161 L405.75,161 L405.75,107.351562 L398.011719,107.351562 L398.011719,139.152344 L391.257812,139.152344 L391.257812,107.351562 L383.519531,107.351562 L383.519531,161 L391.257812,161 Z M432.929688,161 L432.929688,153.371094 L420.597656,153.371094 L420.597656,146.78125 L431.207031,146.78125 L431.207031,139.125 L420.597656,139.125 L420.597656,114.980469 L432.929688,114.980469 L432.929688,107.351562 L412.859375,107.351562 L412.859375,161 L432.929688,161 Z" id="path-1"></path>
        <path d="M366.019531,234.027344 L366.019531,196.238281 L372.855469,207.886719 L379.691406,196.238281 L379.691406,234.027344 L387.15625,234.027344 L387.15625,180.378906 L381.058594,180.378906 L372.855469,194.214844 L364.652344,180.378906 L358.554688,180.378906 L358.554688,234.027344 L366.019531,234.027344 Z M404.820312,234.875 C412.239583,234.856771 415.949219,231.092448 415.949219,223.582031 L415.949219,223.582031 L415.949219,190.769531 C415.949219,183.259115 412.239583,179.503906 404.820312,179.503906 C397.419271,179.503906 393.71875,183.259115 393.71875,190.769531 L393.71875,190.769531 L393.71875,223.582031 C393.71875,231.110677 397.419271,234.875 404.820312,234.875 Z M404.820312,227.21875 C402.578125,227.21875 401.457031,226.00651 401.457031,223.582031 L401.457031,223.582031 L401.457031,190.769531 C401.457031,188.345052 402.56901,187.132812 404.792969,187.132812 L404.792969,187.132812 L404.847656,187.132812 C407.089844,187.151042 408.210938,188.363281 408.210938,190.769531 L408.210938,190.769531 L408.210938,223.582031 C408.210938,226.00651 407.080729,227.21875 404.820312,227.21875 Z M438.644531,234 L446.601562,180.351562 L438.78125,180.351562 L433.3125,224.429688 L427.871094,180.351562 L420.050781,180.351562 L428.035156,234 L438.644531,234 Z M459.125,234 L459.125,180.351562 L451.386719,180.351562 L451.386719,234 L459.125,234 Z M486.441406,234 L486.441406,226.371094 L474.109375,226.371094 L474.109375,219.78125 L484.71875,219.78125 L484.71875,212.125 L474.109375,212.125 L474.109375,187.980469 L486.441406,187.980469 L486.441406,180.351562 L466.371094,180.351562 L466.371094,234 L486.441406,234 Z M503.613281,234 C510.813802,233.981771 514.414062,230.226562 514.414062,222.734375 L514.414062,222.734375 L514.414062,191.644531 C514.414062,184.134115 510.977865,180.369792 504.105469,180.351562 L504.105469,180.351562 L492.183594,180.351562 L492.183594,234 L503.613281,234 Z M503.3125,226.371094 L499.921875,226.371094 L499.921875,187.980469 L503.3125,187.980469 C505.554688,187.980469 506.675781,189.201823 506.675781,191.644531 L506.675781,191.644531 L506.675781,222.734375 C506.675781,225.158854 505.554688,226.371094 503.3125,226.371094 L503.3125,226.371094 Z M532.40625,234 C539.606771,233.981771 543.207031,230.226562 543.207031,222.734375 C543.207031,219.216146 541.794271,216.727865 538.96875,215.269531 C541.794271,213.811198 543.207031,211.322917 543.207031,207.804688 L543.207031,207.804688 L543.207031,191.644531 C543.207031,184.134115 539.770833,180.369792 532.898438,180.351562 L532.898438,180.351562 L520.976562,180.351562 L520.976562,234 L532.40625,234 Z M531.148438,211.441406 L528.714844,211.441406 L528.714844,187.980469 L532.105469,187.980469 C534.347656,187.980469 535.46875,189.201823 535.46875,191.644531 L535.46875,191.644531 L535.46875,207.804688 C535.46875,209.518229 534.766927,210.657552 533.363281,211.222656 C532.96224,211.36849 532.223958,211.441406 531.148438,211.441406 L531.148438,211.441406 Z M532.105469,226.371094 L528.714844,226.371094 L528.714844,219.097656 L531.148438,219.097656 C532.223958,219.097656 532.96224,219.179688 533.363281,219.34375 C534.766927,219.890625 535.46875,221.020833 535.46875,222.734375 C535.46875,225.158854 534.347656,226.371094 532.105469,226.371094 L532.105469,226.371094 Z" id="path-2"></path>
    </defs>
    <g id="Page-1" stroke="none" stroke-width="1" fill="none" fill-rule="evenodd">
        <g id="TheMovieDBbg2" fill-rule="nonzero">
            <rect id="Rectangle" fill="#1A1A1D" x="0" y="0" width="750" height="400"></rect>
            <g id="The">
                <use fill="#000000" xlink:href="#path-1"></use>
                <use stroke="#595959" stroke-width="2" fill="#FFFFFF" xlink:href="#path-1"></use>
            </g>
            <g id="MovieDB">
                <use fill="#000000" xlink:href="#path-2"></use>
                <use stroke="#595959" stroke-width="2" fill="#FFFFFF" xlink:href="#path-2"></use>
            </g>
        </g>
    </g>
</svg>