<?xml version="1.0" encoding="UTF-8"?>
<svg width="360px" height="500px" viewBox="0 0 360 500" version="1.1" xmlns="http://www.w3.org/2000/svg" xmlns:xlink="http://www.w3.org/1999/xlink">
    <title>TheMovieDBMobile</title>
    <defs>
        <path d="M104.351562,150 L104.351562,103.980469 L111.597656,103.980469 L111.597656,96.3515625 L89.3671875,96.3515625 L89.3671875,103.980469 L96.6132812,103.980469 L96.6132812,150 L104.351562,150 Z M124.257812,150 L124.257812,135.808594 L131.011719,135.808594 L131.011719,150 L138.75,150 L138.75,96.3515625 L131.011719,96.3515625 L131.011719,128.152344 L124.257812,128.152344 L124.257812,96.3515625 L116.519531,96.3515625 L116.519531,150 L124.257812,150 Z M165.929688,150 L165.929688,142.371094 L153.597656,142.371094 L153.597656,135.78125 L164.207031,135.78125 L164.207031,128.125 L153.597656,128.125 L153.597656,103.980469 L165.929688,103.980469 L165.929688,96.3515625 L145.859375,96.3515625 L145.859375,150 L165.929688,150 Z" id="path-1"></path>
        <path d="M99.0195312,223.027344 L99.0195312,185.238281 L105.855469,196.886719 L112.691406,185.238281 L112.691406,223.027344 L120.15625,223.027344 L120.15625,169.378906 L114.058594,169.378906 L105.855469,183.214844 L97.6523438,169.378906 L91.5546875,169.378906 L91.5546875,223.027344 L99.0195312,223.027344 Z M137.820312,223.875 C145.239583,223.856771 148.949219,220.092448 148.949219,212.582031 L148.949219,212.582031 L148.949219,179.769531 C148.949219,172.259115 145.239583,168.503906 137.820312,168.503906 C130.419271,168.503906 126.71875,172.259115 126.71875,179.769531 L126.71875,179.769531 L126.71875,212.582031 C126.71875,220.110677 130.419271,223.875 137.820312,223.875 Z M137.820312,216.21875 C135.578125,216.21875 134.457031,215.00651 134.457031,212.582031 L134.457031,212.582031 L134.457031,179.769531 C134.457031,177.345052 135.56901,176.132812 137.792969,176.132812 L137.792969,176.132812 L137.847656,176.132812 C140.089844,176.151042 141.210938,177.363281 141.210938,179.769531 L141.210938,179.769531 L141.210938,212.582031 C141.210938,215.00651 140.080729,216.21875 137.820312,216.21875 Z M171.644531,223 L179.601562,169.351562 L171.78125,169.351562 L166.3125,213.429688 L160.871094,169.351562 L153.050781,169.351562 L161.035156,223 L171.644531,223 Z M192.125,223 L192.125,169.351562 L184.386719,169.351562 L184.386719,223 L192.125,223 Z M219.441406,223 L219.441406,215.371094 L207.109375,215.371094 L207.109375,208.78125 L217.71875,208.78125 L217.71875,201.125 L207.109375,201.125 L207.109375,176.980469 L219.441406,176.980469 L219.441406,169.351562 L199.371094,169.351562 L199.371094,223 L219.441406,223 Z M236.613281,223 C243.813802,222.981771 247.414062,219.226562 247.414062,211.734375 L247.414062,211.734375 L247.414062,180.644531 C247.414062,173.134115 243.977865,169.369792 237.105469,169.351562 L237.105469,169.351562 L225.183594,169.351562 L225.183594,223 L236.613281,223 Z M236.3125,215.371094 L232.921875,215.371094 L232.921875,176.980469 L236.3125,176.980469 C238.554688,176.980469 239.675781,178.201823 239.675781,180.644531 L239.675781,180.644531 L239.675781,211.734375 C239.675781,214.158854 238.554688,215.371094 236.3125,215.371094 L236.3125,215.371094 Z M265.40625,223 C272.606771,222.981771 276.207031,219.226562 276.207031,211.734375 C276.207031,208.216146 274.794271,205.727865 271.96875,204.269531 C274.794271,202.811198 276.207031,200.322917 276.207031,196.804688 L276.207031,196.804688 L276.207031,180.644531 C276.207031,173.134115 272.770833,169.369792 265.898438,169.351562 L265.898438,169.351562 L253.976562,169.351562 L253.976562,223 L265.40625,223 Z M264.148438,200.441406 L261.714844,200.441406 L261.714844,176.980469 L265.105469,176.980469 C267.347656,176.980469 268.46875,178.201823 268.46875,180.644531 L268.46875,180.644531 L268.46875,196.804688 C268.46875,198.518229 267.766927,199.657552 266.363281,200.222656 C265.96224,200.36849 265.223958,200.441406 264.148438,200.441406 L264.148438,200.441406 Z M265.105469,215.371094 L261.714844,215.371094 L261.714844,208.097656 L264.148438,208.097656 C265.223958,208.097656 265.96224,208.179688 266.363281,208.34375 C267.766927,208.890625 268.46875,210.020833 268.46875,211.734375 C268.46875,214.158854 267.347656,215.371094 265.105469,215.371094 L265.105469,215.371094 Z" id="path-2"></path>
    </defs>
    <g id="Page-1" stroke="none" stroke-width="1" fill="none" fill-rule="evenodd">
        <g id="TheMovieDBMobile" fill-rule="nonzero">
            <rect id="Rectangle" fill="#1A1A1D" x="0" y="0" width="360" height="500"></rect>
            <g id="The">
                <use fill="#000000" xlink:href="#path-1"></use>
                <use stroke="#ED3833" stroke-width="2" fill="#F3923D" xlink:href="#path-1"></use>
            </g>
            <g id="MovieDB">
                <use fill="#000000" xlink:href="#path-2"></use>
                <use stroke="#ED3833" stroke-width="2" fill="#F3923D" xlink:href="#path-2"></use>
            </g>
        </g>
    </g>
</svg>