<?xml version="1.0" encoding="UTF-8"?>
<svg width="1440px" height="579px" viewBox="0 0 1440 579" version="1.1" xmlns="http://www.w3.org/2000/svg" xmlns:xlink="http://www.w3.org/1999/xlink">
    <title>Desktop HD Copy 3</title>
    <g id="Desktop-HD-Copy-3" stroke="none" stroke-width="1" fill="none" fill-rule="evenodd">
        <rect fill="#834E2B" x="0" y="0" width="1440" height="579"></rect>
        <rect id="Rectangle" fill="#6BABE1" x="-3" y="1" width="1445" height="200"></rect>
        <rect id="Rectangle-Copy" fill="#477A1E" x="-2" y="139" width="1445" height="180"></rect>
        <g id="Group" transform="translate(2.000000, 304.000000)">
            <g id="Group-2">
                <rect id="Rectangle" fill="#477A1E" x="0" y="15" width="15" height="15"></rect>
                <rect id="Rectangle-Copy-17" fill="#477A1E" x="270" y="15" width="15" height="15"></rect>
                <rect id="Rectangle-Copy-19" fill="#477A1E" x="300" y="15" width="15" height="15"></rect>
                <rect id="Rectangle-Copy-22" fill="#477A1E" x="329" y="15" width="15" height="15"></rect>
                <rect id="Rectangle-Copy-23" fill="#477A1E" x="329" y="30" width="15" height="15"></rect>
                <rect id="Rectangle-Copy-24" fill="#477A1E" x="314" y="30" width="15" height="15"></rect>
                <rect id="Rectangle-Copy-8" fill="#834E2B" x="106" y="0" width="15" height="15"></rect>
                <rect id="Rectangle-Copy-2" fill="#477A1E" x="31" y="15" width="15" height="15"></rect>
                <rect id="Rectangle-Copy-3" fill="#477A1E" x="46" y="15" width="15" height="15"></rect>
                <rect id="Rectangle-Copy-4" fill="#477A1E" x="46" y="30" width="15" height="15"></rect>
                <rect id="Rectangle-Copy-5" fill="#477A1E" x="61" y="15" width="15" height="15"></rect>
                <rect id="Rectangle-Copy-6" fill="#477A1E" x="76" y="15" width="15" height="15"></rect>
                <rect id="Rectangle-Copy-7" fill="#477A1E" x="91" y="15" width="15" height="15"></rect>
                <rect id="Rectangle-Copy-9" fill="#477A1E" x="105" y="15" width="15" height="15"></rect>
                <rect id="Rectangle-Copy-10" fill="#477A1E" x="135" y="15" width="15" height="15"></rect>
                <rect id="Rectangle-Copy-11" fill="#477A1E" x="150" y="15" width="15" height="15"></rect>
                <rect id="Rectangle-Copy-12" fill="#477A1E" x="165" y="15" width="15" height="15"></rect>
                <rect id="Rectangle-Copy-13" fill="#477A1E" x="180" y="15" width="15" height="15"></rect>
                <rect id="Rectangle-Copy-14" fill="#477A1E" x="210" y="15" width="15" height="15"></rect>
                <rect id="Rectangle-Copy-15" fill="#477A1E" x="225" y="15" width="15" height="15"></rect>
                <rect id="Rectangle-Copy-16" fill="#477A1E" x="255" y="15" width="15" height="15"></rect>
                <rect id="Rectangle-Copy-18" fill="#477A1E" x="285" y="15" width="15" height="15"></rect>
                <rect id="Rectangle-Copy-20" fill="#477A1E" x="284" y="30" width="15" height="15"></rect>
                <rect id="Rectangle-Copy-21" fill="#477A1E" x="269" y="30" width="15" height="15"></rect>
            </g>
            <g id="Group-2-Copy" transform="translate(343.000000, 0.000000)">
                <rect id="Rectangle" fill="#477A1E" x="0" y="15" width="15" height="15"></rect>
                <rect id="Rectangle-Copy-17" fill="#477A1E" x="270" y="15" width="15" height="15"></rect>
                <rect id="Rectangle-Copy-19" fill="#477A1E" x="300" y="15" width="15" height="15"></rect>
                <rect id="Rectangle-Copy-22" fill="#477A1E" x="329" y="15" width="15" height="15"></rect>
                <rect id="Rectangle-Copy-23" fill="#477A1E" x="329" y="30" width="15" height="15"></rect>
                <rect id="Rectangle-Copy-24" fill="#477A1E" x="314" y="30" width="15" height="15"></rect>
                <rect id="Rectangle-Copy-8" fill="#834E2B" x="106" y="0" width="15" height="15"></rect>
                <rect id="Rectangle-Copy-2" fill="#477A1E" x="31" y="15" width="15" height="15"></rect>
                <rect id="Rectangle-Copy-3" fill="#477A1E" x="46" y="15" width="15" height="15"></rect>
                <rect id="Rectangle-Copy-4" fill="#477A1E" x="46" y="30" width="15" height="15"></rect>
                <rect id="Rectangle-Copy-5" fill="#477A1E" x="61" y="15" width="15" height="15"></rect>
                <rect id="Rectangle-Copy-6" fill="#477A1E" x="76" y="15" width="15" height="15"></rect>
                <rect id="Rectangle-Copy-7" fill="#477A1E" x="91" y="15" width="15" height="15"></rect>
                <rect id="Rectangle-Copy-9" fill="#477A1E" x="105" y="15" width="15" height="15"></rect>
                <rect id="Rectangle-Copy-10" fill="#477A1E" x="135" y="15" width="15" height="15"></rect>
                <rect id="Rectangle-Copy-11" fill="#477A1E" x="150" y="15" width="15" height="15"></rect>
                <rect id="Rectangle-Copy-12" fill="#477A1E" x="165" y="15" width="15" height="15"></rect>
                <rect id="Rectangle-Copy-13" fill="#477A1E" x="180" y="15" width="15" height="15"></rect>
                <rect id="Rectangle-Copy-14" fill="#477A1E" x="210" y="15" width="15" height="15"></rect>
                <rect id="Rectangle-Copy-15" fill="#477A1E" x="225" y="15" width="15" height="15"></rect>
                <rect id="Rectangle-Copy-16" fill="#477A1E" x="255" y="15" width="15" height="15"></rect>
                <rect id="Rectangle-Copy-18" fill="#477A1E" x="285" y="15" width="15" height="15"></rect>
                <rect id="Rectangle-Copy-20" fill="#477A1E" x="284" y="30" width="15" height="15"></rect>
                <rect id="Rectangle-Copy-21" fill="#477A1E" x="269" y="30" width="15" height="15"></rect>
            </g>
        </g>
        <g id="Group-Copy" transform="translate(691.000000, 289.000000)">
            <g id="Group-2">
                <rect id="Rectangle" fill="#477A1E" x="0" y="30" width="15" height="15"></rect>
                <rect id="Rectangle-Copy-17" fill="#477A1E" x="270" y="30" width="15" height="15"></rect>
                <rect id="Rectangle-Copy-19" fill="#477A1E" x="300" y="30" width="15" height="15"></rect>
                <rect id="Rectangle-Copy-22" fill="#477A1E" x="329" y="30" width="15" height="15"></rect>
                <rect id="Rectangle-Copy-23" fill="#477A1E" x="329" y="45" width="15" height="15"></rect>
                <rect id="Rectangle-Copy-24" fill="#477A1E" x="314" y="45" width="15" height="15"></rect>
                <rect id="Rectangle-Copy-8" fill="#834E2B" x="106" y="15" width="15" height="15"></rect>
                <rect id="Rectangle-Copy-28" fill="#834E2B" x="121" y="0" width="15" height="15"></rect>
                <rect id="Rectangle-Copy-2" fill="#477A1E" x="31" y="30" width="15" height="15"></rect>
                <rect id="Rectangle-Copy-3" fill="#477A1E" x="46" y="30" width="15" height="15"></rect>
                <rect id="Rectangle-Copy-4" fill="#477A1E" x="46" y="45" width="15" height="15"></rect>
                <rect id="Rectangle-Copy-5" fill="#477A1E" x="61" y="30" width="15" height="15"></rect>
                <rect id="Rectangle-Copy-6" fill="#477A1E" x="76" y="30" width="15" height="15"></rect>
                <rect id="Rectangle-Copy-7" fill="#477A1E" x="91" y="30" width="15" height="15"></rect>
                <rect id="Rectangle-Copy-9" fill="#477A1E" x="105" y="30" width="15" height="15"></rect>
                <rect id="Rectangle-Copy-10" fill="#477A1E" x="135" y="30" width="15" height="15"></rect>
                <rect id="Rectangle-Copy-11" fill="#477A1E" x="150" y="30" width="15" height="15"></rect>
                <rect id="Rectangle-Copy-12" fill="#477A1E" x="165" y="30" width="15" height="15"></rect>
                <rect id="Rectangle-Copy-13" fill="#477A1E" x="180" y="30" width="15" height="15"></rect>
                <rect id="Rectangle-Copy-14" fill="#477A1E" x="210" y="30" width="15" height="15"></rect>
                <rect id="Rectangle-Copy-15" fill="#477A1E" x="225" y="30" width="15" height="15"></rect>
                <rect id="Rectangle-Copy-16" fill="#477A1E" x="255" y="30" width="15" height="15"></rect>
                <rect id="Rectangle-Copy-18" fill="#477A1E" x="285" y="30" width="15" height="15"></rect>
                <rect id="Rectangle-Copy-20" fill="#477A1E" x="284" y="45" width="15" height="15"></rect>
                <rect id="Rectangle-Copy-21" fill="#477A1E" x="269" y="45" width="15" height="15"></rect>
            </g>
            <g id="Group-2-Copy" transform="translate(343.000000, 15.000000)">
                <rect id="Rectangle" fill="#477A1E" x="0" y="15" width="15" height="15"></rect>
                <rect id="Rectangle-Copy-17" fill="#477A1E" x="270" y="15" width="15" height="15"></rect>
                <rect id="Rectangle-Copy-19" fill="#477A1E" x="300" y="15" width="15" height="15"></rect>
                <rect id="Rectangle-Copy-22" fill="#477A1E" x="329" y="15" width="15" height="15"></rect>
                <rect id="Rectangle-Copy-23" fill="#477A1E" x="329" y="30" width="15" height="15"></rect>
                <rect id="Rectangle-Copy-25" fill="#477A1E" x="343" y="14" width="15" height="15"></rect>
                <rect id="Rectangle-Copy-26" fill="#477A1E" x="374" y="14" width="15" height="15"></rect>
                <rect id="Rectangle-Copy-27" fill="#477A1E" x="389" y="29" width="15" height="15"></rect>
                <rect id="Rectangle-Copy-24" fill="#477A1E" x="314" y="30" width="15" height="15"></rect>
                <rect id="Rectangle-Copy-8" fill="#834E2B" x="106" y="0" width="15" height="15"></rect>
                <rect id="Rectangle-Copy-2" fill="#477A1E" x="31" y="15" width="15" height="15"></rect>
                <rect id="Rectangle-Copy-3" fill="#477A1E" x="46" y="15" width="15" height="15"></rect>
                <rect id="Rectangle-Copy-4" fill="#477A1E" x="46" y="30" width="15" height="15"></rect>
                <rect id="Rectangle-Copy-5" fill="#477A1E" x="61" y="15" width="15" height="15"></rect>
                <rect id="Rectangle-Copy-6" fill="#477A1E" x="76" y="15" width="15" height="15"></rect>
                <rect id="Rectangle-Copy-7" fill="#477A1E" x="91" y="15" width="15" height="15"></rect>
                <rect id="Rectangle-Copy-9" fill="#477A1E" x="105" y="15" width="15" height="15"></rect>
                <rect id="Rectangle-Copy-10" fill="#477A1E" x="135" y="15" width="15" height="15"></rect>
                <rect id="Rectangle-Copy-11" fill="#477A1E" x="150" y="15" width="15" height="15"></rect>
                <rect id="Rectangle-Copy-12" fill="#477A1E" x="165" y="15" width="15" height="15"></rect>
                <rect id="Rectangle-Copy-13" fill="#477A1E" x="180" y="15" width="15" height="15"></rect>
                <rect id="Rectangle-Copy-14" fill="#477A1E" x="210" y="15" width="15" height="15"></rect>
                <rect id="Rectangle-Copy-15" fill="#477A1E" x="225" y="15" width="15" height="15"></rect>
                <rect id="Rectangle-Copy-16" fill="#477A1E" x="255" y="15" width="15" height="15"></rect>
                <rect id="Rectangle-Copy-18" fill="#477A1E" x="285" y="15" width="15" height="15"></rect>
                <rect id="Rectangle-Copy-20" fill="#477A1E" x="284" y="30" width="15" height="15"></rect>
                <rect id="Rectangle-Copy-21" fill="#477A1E" x="269" y="30" width="15" height="15"></rect>
            </g>
        </g>
    </g>
</svg>