<?xml version="1.0" encoding="UTF-8"?>
<svg width="358px" height="350px" viewBox="0 0 358 350" version="1.1" xmlns="http://www.w3.org/2000/svg" xmlns:xlink="http://www.w3.org/1999/xlink">
    <title>WormBG</title>
    <g id="Page-1" stroke="none" stroke-width="1" fill="none" fill-rule="evenodd">
        <g id="WormBG">
            <rect id="Rectangle" fill="#834E2B" fill-rule="nonzero" x="0" y="0" width="344" height="350"></rect>
            <g id="Group-5">
                <g id="Group-2" fill="#477A1E" fill-rule="nonzero">
                    <polygon id="Rectangle" points="0 0 357 0 357 107 48.4814815 107 0 107"></polygon>
                    <g transform="translate(1.000000, 105.000000)">
                        <polygon id="Triangle" transform="translate(14.529070, 23.500000) rotate(180.000000) translate(-14.529070, -23.500000) " points="14.5290698 1 29.0581395 46 0 46"></polygon>
                        <polygon id="Triangle-Copy" transform="translate(42.549419, 23.500000) rotate(180.000000) translate(-42.549419, -23.500000) " points="42.5494186 1 57.0784884 46 28.0203488 46"></polygon>
                        <polygon id="Triangle-Copy-2" transform="translate(71.607558, 23.500000) rotate(180.000000) translate(-71.607558, -23.500000) " points="71.6075581 1 86.1366279 46 57.0784884 46"></polygon>
                        <polygon id="Triangle-Copy-3" transform="translate(100.665698, 23.500000) rotate(180.000000) translate(-100.665698, -23.500000) " points="100.665698 1 115.194767 46 86.1366279 46"></polygon>
                        <polygon id="Triangle-Copy-4" transform="translate(128.686047, 23.500000) rotate(180.000000) translate(-128.686047, -23.500000) " points="128.686047 1 143.215116 46 114.156977 46"></polygon>
                        <polygon id="Triangle-Copy-5" transform="translate(156.706395, 23.500000) rotate(180.000000) translate(-156.706395, -23.500000) " points="156.706395 1 171.235465 46 142.177326 46"></polygon>
                        <polygon id="Triangle-Copy-6" transform="translate(185.764535, 24.500000) rotate(180.000000) translate(-185.764535, -24.500000) " points="185.764535 2 200.293605 47 171.235465 47"></polygon>
                        <polygon id="Triangle-Copy-7" transform="translate(213.784884, 24.500000) rotate(180.000000) translate(-213.784884, -24.500000) " points="213.784884 2 228.313953 47 199.255814 47"></polygon>
                        <polygon id="Triangle-Copy-8" transform="translate(242.843023, 24.500000) rotate(180.000000) translate(-242.843023, -24.500000) " points="242.843023 2 257.372093 47 228.313953 47"></polygon>
                        <polygon id="Triangle-Copy-9" transform="translate(270.863372, 24.500000) rotate(180.000000) translate(-270.863372, -24.500000) " points="270.863372 2 285.392442 47 256.334302 47"></polygon>
                        <polygon id="Triangle-Copy-10" transform="translate(299.921512, 24.500000) rotate(180.000000) translate(-299.921512, -24.500000) " points="299.921512 2 314.450581 47 285.392442 47"></polygon>
                        <polygon id="Triangle-Copy-11" transform="translate(328.979651, 24.500000) rotate(180.000000) translate(-328.979651, -24.500000) " points="328.979651 2 343.508721 47 314.450581 47"></polygon>
                        <polygon id="Triangle-Copy-11-Copy" transform="translate(348.776335, 23.448593) rotate(180.000000) translate(-348.776335, -23.448593) " points="341.590461 0.897186936 356.119531 45.8971869 341.43314 46"></polygon>
                    </g>
                </g>
                <g id="WORM" transform="translate(55.901961, 23.000000)" fill-rule="nonzero">
                    <g id="Group">
                        <g id="path-1-link" fill="#000000">
                            <path d="M52.5919363,49.84 C59.8846324,49.84 62.7741912,45.36 63.4621814,39.13 L67.7965196,1.75 L59.3342402,1.75 L55.4126961,38.64 C55.206299,40.67 54.3807108,41.79 52.5919363,41.79 C50.9407598,41.79 49.9087745,40.88 49.6335784,39.2 L44.473652,10.22 C43.3728676,4.13 40.1393137,0.91 34.085,0.91 C28.0306863,0.91 24.5907353,4.13 23.421152,10.22 L17.9172304,39.2 C17.5732353,40.95 16.610049,41.79 15.0276716,41.79 C13.2388971,41.79 12.4133088,40.67 12.2069118,38.64 L8.76696078,1.75 L0.235882353,1.75 L4.22622549,39.13 C4.91421569,45.5 7.66617647,49.84 14.8212745,49.84 C21.0131863,49.84 24.5219363,46.69 25.7603186,40.25 L31.1954412,11.41 C31.5394363,9.73 32.5026225,8.89 34.016201,8.89 C35.5297794,8.89 36.5617647,9.73 36.8369608,11.41 L41.9280882,40.25 C43.0976716,46.9 46.7440196,49.84 52.5919363,49.84 Z M99.8568627,49 C113.41027,49 120.840564,41.3 120.840564,25.48 C120.840564,9.59 113.341471,1.75 99.8568627,1.75 L93.5273529,1.75 C80.0427451,1.75 72.543652,9.59 72.543652,25.48 C72.543652,41.3 79.9739461,49 93.5273529,49 L99.8568627,49 Z M99.8568627,40.74 L93.5273529,40.74 C84.5146814,40.74 80.6619363,36.26 80.6619363,25.48 C80.6619363,14.63 84.5834804,10.01 93.5273529,10.01 L99.8568627,10.01 C108.800735,10.01 112.65348,14.63 112.65348,25.41 C112.65348,36.26 108.800735,40.74 99.8568627,40.74 Z M138.453113,49 L138.453113,31.92 C138.453113,31.08 138.865907,30.73 139.622696,30.73 L151.731324,30.73 L162.326373,49 L171.339044,49 L160.537598,30.1 C167.623897,28.07 170.375858,21.77 170.375858,15.89 C170.375858,8.33 165.903922,1.75 155.446471,1.75 L130.266029,1.75 L130.266029,10.01 L155.721667,10.01 C160.193603,10.01 162.188775,12.88 162.188775,16.24 C162.188775,19.6 160.331201,22.82 155.721667,22.82 L137.627525,22.82 C132.536397,22.82 130.334828,24.99 130.334828,30.31 L130.334828,49 L138.453113,49 Z M211.861667,49.84 C218.259975,49.84 221.42473,46.55 222.86951,40.32 L229.543015,11.41 C229.88701,9.87 230.850196,8.89 232.776569,8.89 C234.909338,8.89 236.078922,10.08 236.078922,11.9 L236.078922,49 L244.128407,49 L244.128407,11.48 C244.128407,5.18 240.482059,0.91 232.982966,0.91 C226.309461,0.91 222.86951,4.27 221.562328,10.22 L215.026422,39.13 C214.613627,40.81 213.650441,41.79 211.930466,41.79 C210.21049,41.79 209.247304,40.81 208.83451,39.13 L202.298603,10.22 C200.991422,4.27 197.207475,0.91 190.60277,0.91 C183.103676,0.91 179.457328,5.18 179.457328,11.48 L179.457328,49 L187.506814,49 L187.506814,11.9 C187.506814,10.08 188.676397,8.89 190.809167,8.89 C192.66674,8.89 193.698725,9.87 194.042721,11.41 L200.647426,40.32 C202.023407,46.41 205.394559,49.84 211.861667,49.84 Z" id="path-1"></path>
                        </g>
                        <g id="path-1-link" fill="#FFFFFF">
                            <path d="M52.5919363,49.84 C59.8846324,49.84 62.7741912,45.36 63.4621814,39.13 L67.7965196,1.75 L59.3342402,1.75 L55.4126961,38.64 C55.206299,40.67 54.3807108,41.79 52.5919363,41.79 C50.9407598,41.79 49.9087745,40.88 49.6335784,39.2 L44.473652,10.22 C43.3728676,4.13 40.1393137,0.91 34.085,0.91 C28.0306863,0.91 24.5907353,4.13 23.421152,10.22 L17.9172304,39.2 C17.5732353,40.95 16.610049,41.79 15.0276716,41.79 C13.2388971,41.79 12.4133088,40.67 12.2069118,38.64 L8.76696078,1.75 L0.235882353,1.75 L4.22622549,39.13 C4.91421569,45.5 7.66617647,49.84 14.8212745,49.84 C21.0131863,49.84 24.5219363,46.69 25.7603186,40.25 L31.1954412,11.41 C31.5394363,9.73 32.5026225,8.89 34.016201,8.89 C35.5297794,8.89 36.5617647,9.73 36.8369608,11.41 L41.9280882,40.25 C43.0976716,46.9 46.7440196,49.84 52.5919363,49.84 Z M99.8568627,49 C113.41027,49 120.840564,41.3 120.840564,25.48 C120.840564,9.59 113.341471,1.75 99.8568627,1.75 L93.5273529,1.75 C80.0427451,1.75 72.543652,9.59 72.543652,25.48 C72.543652,41.3 79.9739461,49 93.5273529,49 L99.8568627,49 Z M99.8568627,40.74 L93.5273529,40.74 C84.5146814,40.74 80.6619363,36.26 80.6619363,25.48 C80.6619363,14.63 84.5834804,10.01 93.5273529,10.01 L99.8568627,10.01 C108.800735,10.01 112.65348,14.63 112.65348,25.41 C112.65348,36.26 108.800735,40.74 99.8568627,40.74 Z M138.453113,49 L138.453113,31.92 C138.453113,31.08 138.865907,30.73 139.622696,30.73 L151.731324,30.73 L162.326373,49 L171.339044,49 L160.537598,30.1 C167.623897,28.07 170.375858,21.77 170.375858,15.89 C170.375858,8.33 165.903922,1.75 155.446471,1.75 L130.266029,1.75 L130.266029,10.01 L155.721667,10.01 C160.193603,10.01 162.188775,12.88 162.188775,16.24 C162.188775,19.6 160.331201,22.82 155.721667,22.82 L137.627525,22.82 C132.536397,22.82 130.334828,24.99 130.334828,30.31 L130.334828,49 L138.453113,49 Z M211.861667,49.84 C218.259975,49.84 221.42473,46.55 222.86951,40.32 L229.543015,11.41 C229.88701,9.87 230.850196,8.89 232.776569,8.89 C234.909338,8.89 236.078922,10.08 236.078922,11.9 L236.078922,49 L244.128407,49 L244.128407,11.48 C244.128407,5.18 240.482059,0.91 232.982966,0.91 C226.309461,0.91 222.86951,4.27 221.562328,10.22 L215.026422,39.13 C214.613627,40.81 213.650441,41.79 211.930466,41.79 C210.21049,41.79 209.247304,40.81 208.83451,39.13 L202.298603,10.22 C200.991422,4.27 197.207475,0.91 190.60277,0.91 C183.103676,0.91 179.457328,5.18 179.457328,11.48 L179.457328,49 L187.506814,49 L187.506814,11.9 C187.506814,10.08 188.676397,8.89 190.809167,8.89 C192.66674,8.89 193.698725,9.87 194.042721,11.41 L200.647426,40.32 C202.023407,46.41 205.394559,49.84 211.861667,49.84 Z" id="path-1"></path>
                        </g>
                    </g>
                </g>
                <g id="Group" transform="translate(76.541667, 154.000000)" fill="#EFBDD9" fill-rule="nonzero">
                    <ellipse id="Oval-Copy-19" cx="9.82843137" cy="83" rx="9.82843137" ry="10"></ellipse>
                    <ellipse id="Oval-Copy-20" cx="129.735294" cy="78" rx="9.82843137" ry="10"></ellipse>
                    <ellipse id="Oval-Copy-38" cx="129.735294" cy="61" rx="9.82843137" ry="10"></ellipse>
                    <ellipse id="Oval-Copy-39" cx="146.443627" cy="10" rx="9.82843137" ry="10"></ellipse>
                    <ellipse id="Oval-Copy-40" cx="163.151961" cy="10" rx="9.82843137" ry="10"></ellipse>
                    <ellipse id="Oval-Copy-41" cx="145.460784" cy="43" rx="9.82843137" ry="10"></ellipse>
                    <ellipse id="Oval-Copy-42" cx="114.009804" cy="96" rx="9.82843137" ry="10"></ellipse>
                    <ellipse id="Oval-Copy-43" cx="146.443627" cy="27" rx="9.82843137" ry="10"></ellipse>
                    <ellipse id="Oval-Copy-44" cx="128.752451" cy="44" rx="9.82843137" ry="10"></ellipse>
                    <ellipse id="Oval-Copy-45" cx="130.718137" cy="96" rx="9.82843137" ry="10"></ellipse>
                    <ellipse id="Oval-Copy-46" cx="96.3186275" cy="96" rx="9.82843137" ry="10"></ellipse>
                    <ellipse id="Oval-Copy-22" cx="44.2279412" cy="134" rx="9.82843137" ry="10"></ellipse>
                    <ellipse id="Oval-Copy-23" cx="61.9191176" cy="28" rx="9.82843137" ry="10"></ellipse>
                    <ellipse id="Oval-Copy-24" cx="9.82843137" cy="100" rx="9.82843137" ry="10"></ellipse>
                    <ellipse id="Oval-Copy-25" cx="45.2107843" cy="63" rx="9.82843137" ry="10"></ellipse>
                    <ellipse id="Oval-Copy-26" cx="9.82843137" cy="117" rx="9.82843137" ry="10"></ellipse>
                    <ellipse id="Oval-Copy-27" cx="45.2107843" cy="81" rx="9.82843137" ry="10"></ellipse>
                    <ellipse id="Oval-Copy-28" cx="45.2107843" cy="117" rx="9.82843137" ry="10"></ellipse>
                    <ellipse id="Oval-Copy-29" cx="45.2107843" cy="99" rx="9.82843137" ry="10"></ellipse>
                    <ellipse id="Oval-Copy-30" cx="27.5196078" cy="135" rx="9.82843137" ry="10"></ellipse>
                    <ellipse id="Oval-Copy-31" cx="44.2279412" cy="46" rx="9.82843137" ry="10"></ellipse>
                    <ellipse id="Oval-Copy-32" cx="45.2107843" cy="29" rx="9.82843137" ry="10"></ellipse>
                    <ellipse id="Oval-Copy-33" cx="78.627451" cy="28" rx="9.82843137" ry="10"></ellipse>
                    <ellipse id="Oval-Copy-34" cx="95.3357843" cy="61" rx="9.82843137" ry="10"></ellipse>
                    <ellipse id="Oval-Copy-35" cx="94.3529412" cy="30" rx="9.82843137" ry="10"></ellipse>
                    <ellipse id="Oval-Copy-37" cx="95.3357843" cy="46" rx="9.82843137" ry="10"></ellipse>
                    <ellipse id="Oval-Copy-21" cx="9.82843137" cy="135" rx="9.82843137" ry="10"></ellipse>
                </g>
                <ellipse id="Oval-Copy-36" fill="#EFBDD9" fill-rule="nonzero" cx="171.877451" cy="233" rx="9.82843137" ry="10"></ellipse>
                <g id="Group-4" transform="translate(277.200742, 164.064271) rotate(22.000000) translate(-277.200742, -164.064271) translate(267.200742, 153.064271)">
                    <ellipse id="Oval" fill="#E74C3C" fill-rule="nonzero" cx="9.82843137" cy="12" rx="9.82843137" ry="10"></ellipse>
                    <path d="M10.1773262,1.3560932 L11.1737986,1.34747892 C11.4427966,1.34515349 11.6627477,1.56133433 11.6650732,1.83033234 C11.6650974,1.83314017 11.6650974,1.83594816 11.6650731,1.838756 L11.6650372,1.84290873 C11.6626778,2.11566998 11.4421394,2.33620725 11.1693782,2.33856521 L10.1729058,2.34717949 C9.90390775,2.34950492 9.68395665,2.13332408 9.68163122,1.86432607 C9.68160695,1.86151824 9.68160696,1.85871024 9.68163125,1.85590241 L9.68166717,1.85174968 C9.68402655,1.57898843 9.90456497,1.35845116 10.1773262,1.3560932 Z" id="Rectangle" stroke="#6CA487" transform="translate(10.673352, 1.847329) rotate(-46.000000) translate(-10.673352, -1.847329) "></path>
                    <path d="M8.17234606,0.616311359 L9.16422158,0.624776051 C9.43703219,0.627104224 9.65761543,0.84769311 9.65993662,1.12050379 L9.6599785,1.1254264 C9.66227196,1.39497796 9.44561647,1.61535189 9.17606491,1.61764535 C9.17329234,1.61766894 9.17051963,1.6176689 9.16774707,1.61764524 L8.17587155,1.60918055 C7.90306093,1.60685237 7.6824777,1.38626349 7.68015651,1.11345281 L7.68011462,1.10853019 C7.67782117,0.838978636 7.89447666,0.61860471 8.16402822,0.616311252 C8.16680078,0.616287662 8.1695735,0.616287697 8.17234606,0.616311359 Z" id="Rectangle-Copy" stroke="#6CA487" transform="translate(8.670047, 1.116978) rotate(-140.000000) translate(-8.670047, -1.116978) "></path>
                </g>
            </g>
        </g>
    </g>
</svg>