<?xml version="1.0" encoding="UTF-8"?>
<svg width="1298px" height="1492px" viewBox="0 0 1298 1492" version="1.1" xmlns="http://www.w3.org/2000/svg" xmlns:xlink="http://www.w3.org/1999/xlink">
    <title>Hero</title>
    <defs>
        <linearGradient x1="50.7987548%" y1="9.27860909%" x2="28.4435762%" y2="94.3595098%" id="linearGradient-1">
            <stop stop-color="#48B0C8" offset="0%"></stop>
            <stop stop-color="#6CF8F7" offset="99.9225413%"></stop>
            <stop stop-color="#6CF8F7" offset="100%"></stop>
            <stop stop-color="#6CF8F7" offset="100%"></stop>
            <stop stop-color="#6CF8F7" offset="100%"></stop>
        </linearGradient>
        <filter x="-5.0%" y="-10.3%" width="110.0%" height="120.7%" filterUnits="objectBoundingBox" id="filter-2">
            <feOffset dx="2" dy="5" in="SourceAlpha" result="shadowOffsetOuter1"></feOffset>
            <feGaussianBlur stdDeviation="3" in="shadowOffsetOuter1" result="shadowBlurOuter1"></feGaussianBlur>
            <feColorMatrix values="0 0 0 0 0   0 0 0 0 0   0 0 0 0 0  0 0 0 0.5 0" type="matrix" in="shadowBlurOuter1" result="shadowMatrixOuter1"></feColorMatrix>
            <feMerge>
                <feMergeNode in="shadowMatrixOuter1"></feMergeNode>
                <feMergeNode in="SourceGraphic"></feMergeNode>
            </feMerge>
        </filter>
        <filter x="-20.1%" y="-28.2%" width="140.2%" height="156.5%" filterUnits="objectBoundingBox" id="filter-3">
            <feOffset dx="0" dy="3" in="SourceAlpha" result="shadowOffsetOuter1"></feOffset>
            <feGaussianBlur stdDeviation="3" in="shadowOffsetOuter1" result="shadowBlurOuter1"></feGaussianBlur>
            <feColorMatrix values="0 0 0 0 0   0 0 0 0 0   0 0 0 0 0  0 0 0 0.5 0" type="matrix" in="shadowBlurOuter1" result="shadowMatrixOuter1"></feColorMatrix>
            <feMerge>
                <feMergeNode in="shadowMatrixOuter1"></feMergeNode>
                <feMergeNode in="SourceGraphic"></feMergeNode>
            </feMerge>
        </filter>
        <filter x="-23.0%" y="-41.7%" width="146.0%" height="183.3%" filterUnits="objectBoundingBox" id="filter-4">
            <feOffset dx="0" dy="3" in="SourceAlpha" result="shadowOffsetOuter1"></feOffset>
            <feGaussianBlur stdDeviation="3.5" in="shadowOffsetOuter1" result="shadowBlurOuter1"></feGaussianBlur>
            <feColorMatrix values="0 0 0 0 0   0 0 0 0 0   0 0 0 0 0  0 0 0 0.5 0" type="matrix" in="shadowBlurOuter1" result="shadowMatrixOuter1"></feColorMatrix>
            <feMerge>
                <feMergeNode in="shadowMatrixOuter1"></feMergeNode>
                <feMergeNode in="SourceGraphic"></feMergeNode>
            </feMerge>
        </filter>
    </defs>
    <g id="Page-1" stroke="none" stroke-width="1" fill="none" fill-rule="evenodd">
        <g id="Desktop-HD-Copy-9" transform="translate(-160.000000, 416.000000)">
            <g id="Hero" transform="translate(160.000000, -416.000000)">
                <g id="Group-10" transform="translate(0.251111, 0.034037)">
                    <path d="M671.300805,123.156084 C909.694217,116.865129 1098.1045,301.515548 1095.37988,536.951834 L1095.2619,542.927994 L1095.58479,542.919873 L1073.1767,1345.65782 L201.157588,1368.6695 L223.532144,567.105097 L223.219551,567.113346 C229.886567,328.27702 430.499378,129.510583 671.300805,123.156084 Z" id="Combined-Shape-Copy" fill="#6CF8F7" fill-rule="nonzero" opacity="0.03" transform="translate(648.371190, 745.834751) rotate(-158.000000) translate(-648.371190, -745.834751) "></path>
                    <g id="Group-12" transform="translate(98.000000, 153.129477)">
                        <g id="Group-8">
                            <path d="M895.0926,468.580432 L895.0926,1159.82529 L173,1159.82529 L173,468.580432 L895.0926,468.580432 Z M534.122998,97 C731.529361,97 891.932607,260.387472 895.120931,463.188395 L895.169302,469.345814 L173.076696,469.345814 C173.076696,263.7049 334.722632,97 534.122998,97 Z" id="Combined-Shape" fill="url(#linearGradient-1)" fill-rule="nonzero" transform="translate(534.084651, 628.412645) rotate(-158.000000) translate(-534.084651, -628.412645) "></path>
                            <g id="Group-7" transform="translate(296.748889, 553.836486)">
                                <g id="Group-3" filter="url(#filter-2)" transform="translate(0.000000, 40.000000)">
                                    <g id="Group">
                                        <rect id="Rectangle" fill="#535F76" x="22" y="11" width="257" height="137"></rect>
                                        <rect id="Rectangle" fill="#3B414E" x="14" y="2" width="272" height="10" rx="5"></rect>
                                        <rect id="Rectangle" fill="#3B414E" x="125" y="0" width="48" height="3"></rect>
                                        <ellipse id="Oval" stroke="#88C0D0" cx="67.5" cy="103" rx="31" ry="28.5"></ellipse>
                                        <ellipse id="Oval" fill="#ADD3DE" cx="61.5" cy="114" rx="25.5" ry="24"></ellipse>
                                        <rect id="Rectangle" stroke="#4C566A" fill="#E5E9F0" x="37.5" y="34.5" width="135" height="7" rx="3.5"></rect>
                                        <rect id="Rectangle" stroke="#4C566A" fill="#88C0D0" x="37.5" y="63.5" width="135" height="7" rx="3.5"></rect>
                                        <rect id="Rectangle" stroke="#4C566A" fill="#ADD3DE" x="38.5" y="49.5" width="76" height="7" rx="3.5"></rect>
                                        <rect id="Rectangle-Copy" stroke="#4C566A" fill="#ADD3DE" x="121.5" y="49.5" width="76" height="7" rx="3.5"></rect>
                                        <rect id="Rectangle-Copy-2" stroke="#4C566A" fill="#ADD3DE" x="177.5" y="34.5" width="25" height="7" rx="3.5"></rect>
                                        <rect id="Rectangle-Copy-3" stroke="#4C566A" fill="#E5E9F0" x="175.5" y="63.5" width="38" height="7" rx="3.5"></rect>
                                        <rect id="Rectangle-Copy-4" stroke="#4C566A" fill="#E5E9F0" x="97.5" y="78.5" width="39" height="7" rx="3.5"></rect>
                                        <rect id="Rectangle-Copy-6" stroke="#4C566A" fill="#ADD3DE" x="139.5" y="78.5" width="135" height="7" rx="3.5"></rect>
                                        <rect id="Rectangle-Copy-7" stroke="#4C566A" fill="#E5E9F0" x="183.5" y="94.5" width="39" height="7" rx="3.5"></rect>
                                        <rect id="Rectangle-Copy-8" stroke="#4C566A" fill="#88C0D0" x="225.5" y="94.5" width="21" height="7" rx="3.5"></rect>
                                        <rect id="Rectangle-Copy-5" stroke="#4C566A" fill="#88C0D0" x="103.5" y="94.5" width="77" height="7" rx="3.5"></rect>
                                        <rect id="Rectangle" fill="#3B414E" x="279" y="5" width="7" height="144" rx="3.5"></rect>
                                        <rect id="Rectangle" fill="#3B414E" x="11" y="2" width="12" height="147" rx="6"></rect>
                                        <rect id="Rectangle" fill="#3B414E" x="0" y="147" width="303" height="21" rx="8"></rect>
                                        <circle id="Oval" fill="#4BA7DD" cx="149.5" cy="7.5" r="3.5"></circle>
                                    </g>
                                    <g id="Group-2" transform="translate(345.000000, 45.000000)">
                                        <rect id="Rectangle" stroke="#434C5E" fill="#434C5E" x="83.5" y="38.5" width="1" height="17"></rect>
                                        <rect id="Rectangle" stroke="#3B414E" stroke-width="4" fill="#535F76" x="2" y="2" width="79" height="159" rx="8"></rect>
                                        <rect id="Rectangle" fill="#ADD3DE" x="37" y="28" width="12" height="9"></rect>
                                        <ellipse id="Oval" stroke="#88C0D0" cx="41.5" cy="131" rx="22" ry="20.5"></ellipse>
                                        <ellipse id="Oval" fill="#ADD3DE" cx="38" cy="138.5" rx="19" ry="17.5"></ellipse>
                                        <rect id="Rectangle-Copy-12" stroke="#4C566A" fill="#88C0D0" x="23.5" y="97.5" width="54" height="7" rx="3.5"></rect>
                                        <rect id="Rectangle-Copy-13" stroke="#4C566A" fill="#ADD3DE" x="9.5" y="71.5" width="68" height="7" rx="3.5"></rect>
                                        <rect id="Rectangle-Copy-14" stroke="#4C566A" fill="#88C0D0" x="6.5" y="45.5" width="54" height="7" rx="3.5"></rect>
                                        <rect id="Rectangle-Copy-15" stroke="#4C566A" fill="#E5E9F0" x="23.5" y="58.5" width="54" height="7" rx="3.5"></rect>
                                        <rect id="Rectangle-Copy-16" stroke="#4C566A" fill="#E5E9F0" x="6.5" y="84.5" width="54" height="7" rx="3.5"></rect>
                                        <rect id="Rectangle-Copy-17" stroke="#4C566A" fill="#ADD3DE" x="7.5" y="58.5" width="14" height="7" rx="3.5"></rect>
                                    </g>
                                </g>
                                <g id="Group-4" filter="url(#filter-3)" transform="translate(318.000000, 0.000000)">
                                    <path d="M79,2 C80.6568542,2 82.1568542,2.67157288 83.2426407,3.75735931 C84.3284271,4.84314575 85,6.34314575 85,8 L85,8 L85,39.3157895 C85,40.9726437 84.3284271,42.4726437 83.2426407,43.5584302 C82.1568542,44.6442166 80.6568542,45.3157895 79.0000292,45.3157895 L79.0000292,45.3157895 L23.8320786,45.3149838 L15.7861483,58.2199895 L7.73572489,45.3099377 C5.98654313,45.2354973 4.43312953,44.4099874 3.38500104,43.1504013 C2.51988304,42.1107476 2,40.7739252 2,39.3157895 L2,39.3157895 L2,8 C2,6.34314575 2.67157288,4.84314575 3.75735931,3.75735931 C4.84314575,2.67157288 6.34314575,2 8,2 L8,2 Z" id="Combined-Shape" stroke="#3B414E" stroke-width="4" fill="#535F76"></path>
                                    <rect id="Rectangle" fill="#ADD3DE" x="9" y="9" width="43" height="5" rx="2.5"></rect>
                                    <rect id="Rectangle-Copy-9" fill="#E5E9F0" x="9" y="18" width="29" height="5" rx="2.5"></rect>
                                    <rect id="Rectangle-Copy-10" fill="#E5E9F0" x="39" y="18" width="43" height="5" rx="2.5"></rect>
                                    <rect id="Rectangle-Copy-11" fill="#ADD3DE" x="9" y="28" width="43" height="5" rx="2.5"></rect>
                                </g>
                                <g id="Group-6" transform="translate(98.000000, 234.000000)">
                                    <g id="Group-4-Copy" filter="url(#filter-4)">
                                        <path d="M79,2 C80.6568542,2 82.1568542,2.67157288 83.2426407,3.75735931 C84.3284271,4.84314575 85,6.34314575 85,8 L85,8 L85,39.3157895 C85,40.9726437 84.3284271,42.4726437 83.2426407,43.5584302 C82.1568542,44.6442166 80.6568542,45.3157895 79,45.3157895 L79,45.3157895 L8,45.3157895 C6.34314575,45.3157895 4.84314575,44.6442166 3.75735931,43.5584302 C2.67157288,42.4726437 2,40.9726437 2,39.3157895 L2,39.3157895 L2,8 C2,6.34314575 2.67157288,4.84314575 3.75735931,3.75735931 C4.84314575,2.67157288 6.34314575,2 8,2 L8,2 Z" id="Combined-Shape" stroke="#3B414E" stroke-width="4" fill="#535F76"></path>
                                        <rect id="Rectangle" fill="#3B414E" x="9" y="9" width="43" height="5" rx="2.5"></rect>
                                        <rect id="Rectangle-Copy-10" fill="#3B414E" x="9" y="20" width="43" height="5" rx="2.5"></rect>
                                        <rect id="Rectangle-Copy-18" fill="#3B414E" x="8" y="31" width="43" height="5" rx="2.5"></rect>
                                    </g>
                                    <g id="Group-5" transform="translate(63.000000, 6.000000)">
                                        <circle id="Oval" fill="#8FBCBB" cx="5" cy="5" r="5"></circle>
                                        <polyline id="Path-3" stroke="#FFFFFF" points="3.03249954 4.78056179 4.59611938 6.135955 8.2715675 3.10370129"></polyline>
                                    </g>
                                    <g id="Group-5-Copy" transform="translate(63.000000, 18.000000)">
                                        <circle id="Oval" fill="#8FBCBB" cx="5" cy="5" r="5"></circle>
                                        <polyline id="Path-3" stroke="#FFFFFF" points="3.03249954 4.78056179 4.59611938 6.135955 8.2715675 3.10370129"></polyline>
                                    </g>
                                    <g id="Group-5-Copy-2" transform="translate(63.000000, 29.000000)">
                                        <circle id="Oval" fill="#8FBCBB" cx="5" cy="5" r="5"></circle>
                                        <polyline id="Path-3" stroke="#FFFFFF" points="3.03249954 4.78056179 4.59611938 6.135955 8.2715675 3.10370129"></polyline>
                                    </g>
                                </g>
                            </g>
                        </g>
                        <path d="M170.826933,350.277156 L326.6214,346.810229 C330.172836,346.731198 333.115911,349.546139 333.194942,353.097574 C333.197134,353.196073 333.197062,353.294608 333.194727,353.393103 C333.10542,357.160476 330.069697,360.191797 326.302198,360.275636 L170.507731,363.742563 C166.956295,363.821594 164.01322,361.006654 163.934189,357.455218 C163.931997,357.35672 163.932069,357.258184 163.934404,357.159689 C164.023711,353.392316 167.059434,350.360995 170.826933,350.277156 Z" id="Rectangle" fill="#3B4254" fill-rule="nonzero" transform="translate(248.564565, 355.276396) rotate(18.000000) translate(-248.564565, -355.276396) "></path>
                        <rect id="Rectangle-Copy" fill="#3B4254" fill-rule="nonzero" x="697.766433" y="899.182614" width="191" height="13.7683653" rx="6.88418266"></rect>
                        <path d="M68.1225329,1027.30357 L313.162214,1023.73329 C316.698417,1023.68176 319.606843,1026.50666 319.658367,1030.04286 C319.659945,1030.1512 319.658774,1030.25956 319.654854,1030.36784 C319.518273,1034.14022 316.449147,1037.1437 312.674694,1037.19869 L67.6350131,1040.76898 C64.0988101,1040.8205 61.1903833,1037.99561 61.13886,1034.45941 C61.1372815,1034.35107 61.1384529,1034.24271 61.1423733,1034.13443 C61.2789537,1030.36204 64.3480797,1027.35857 68.1225329,1027.30357 Z" id="Rectangle-Copy-2" fill="#3B4254" fill-rule="nonzero" transform="translate(190.398613, 1032.251133) rotate(18.000000) translate(-190.398613, -1032.251133) "></path>
                    </g>
                </g>
            </g>
        </g>
    </g>
</svg>